<svg xmlns="http://www.w3.org/2000/svg" width="25" height="23" fill="none"><path fill="#163150" fill-rule="evenodd" d="M21.26 1.201c.266-.108.57-.202.894-.217.325-.014.673.051 1.028.264.355.213.641.608.75 1.021.108.414.083.832-.016 1.282l.006-.024s-3.364 17.271-3.444 17.69v.002c-.084.443-.283.795-.603 1.13-.32.336-.818.65-1.445.65-1.058 0-1.537-.657-1.588-.73l-3.65-3.453-3.01 2.604-.022.015s-.358.323-.943.323a1.5 1.5 0 0 1-.444-.08l-.033-.007a.256.256 0 0 1-.053-.013.135.135 0 0 1-.023-.011.075.075 0 0 0-.02-.01l-.003-.002a1.175 1.175 0 0 1-.188-.092 1.443 1.443 0 0 1-.371-.346c-.208-.27-.367-.61-.535-1.152a606.506 606.506 0 0 0-1.496-4.62l-.057-.175-.345-.141-4.235-1.732c-.27-.11-.584-.255-.88-.549A1.888 1.888 0 0 1 0 11.547c0-.615.362-1.166.703-1.432a2.66 2.66 0 0 1 .7-.387l.054-.021 3.162-1.36 8.313-3.578 5.62-2.414.039-.016a289.142 289.142 0 0 1 2.669-1.138zm.706 1.895v-.022c-.116.048-1.144.485-2.624 1.12-1.503.644-3.497 1.5-5.621 2.413a21610.22 21610.22 0 0 0-8.01 3.447l-3.463 1.49-.014.007c.94.383 3.513 1.436 4.381 1.792l.237.096c2.82-1.64 9.111-5.307 10.544-6.22l.045-.03c.116-.075.29-.19.424-.19.17 0 .246.107.246.253 0 .109-.066.22-.384.535-.395.395-6.952 7.182-6.952 7.182l-1.048 4.199 3.525-3.047 4.986 4.717.02.021s.122.053.181.094c.018-.024.035-.056.05-.08.018-.035.03-.056.025-.027.123-.65 3.445-17.7 3.445-17.7l.002-.011.002-.012c.004-.019.003-.023.003-.027z" clip-rule="evenodd"/></svg>