<svg xmlns="http://www.w3.org/2000/svg" width="24" height="24" fill="none"><path fill="#163150" fill-rule="evenodd" d="M12.725.122a2.1 2.1 0 0 1 .809-.118c.77.061 1.466.573 1.73 1.358l.836 2.452 2.341-.78c1.044-.348 2.162.23 2.51 1.273a1.966 1.966 0 0 1-1.24 2.508l-2.37.78 1.589 4.702 2.453-.808a1.972 1.972 0 0 1 2.51 1.24c.353 1.043-.197 2.19-1.24 2.542l-2.454.836.78 2.34c.348 1.037-.225 2.16-1.269 2.508a1.972 1.972 0 0 1-2.51-1.24l-.78-2.368-4.71 1.588.813 2.452a1.973 1.973 0 0 1-1.245 2.508c-1.044.348-2.19-.197-2.539-1.24l-.836-2.452-2.341.775c-1.044.352-2.162-.225-2.515-1.268a1.97 1.97 0 0 1 1.241-2.51l2.37-.78-1.59-4.701-2.453.807a1.972 1.972 0 0 1-2.51-1.24c-.348-1.043.197-2.193 1.24-2.54l2.459-.837-.78-2.34c-.353-1.042.225-2.16 1.269-2.508a1.972 1.972 0 0 1 2.51 1.24l.78 2.368 4.733-1.588-.836-2.452A1.969 1.969 0 0 1 12.725.122zm2.426 13.444l-1.589-4.703-4.71 1.588 1.589 4.702 4.71-1.587z" clip-rule="evenodd"/></svg>