<svg xmlns="http://www.w3.org/2000/svg" width="26" height="26" fill="none"><path fill="#163150" fill-rule="evenodd" d="M13 1C6.38 1 1 6.38 1 13s5.38 12 12 12 12-5.38 12-12S19.62 1 13 1zm0 1.043A10.95 10.95 0 0 1 23.956 13l-.001.06-.002.051c-.333-.03-.719-.06-1.21-.077a30.969 30.969 0 0 0-2.557.031c.037-.256.063-.515.063-.781.05-.977-.277-1.891-.81-2.699.128-.445.28-1.012.317-1.655.043-.732-.02-1.545-.608-2.094l-.151-.14h-.206c-1.4 0-2.358.586-2.944 1.05A7.839 7.839 0 0 0 13 6.217a8.254 8.254 0 0 0-2.897.531c-.586-.465-1.545-1.052-2.946-1.052h-.205l-.15.14c-.574.531-.626 1.321-.59 2.05.03.643.173 1.228.3 1.695-.543.823-.868 1.76-.868 2.688 0 .267.025.528.06.784a30.98 30.98 0 0 0-2.448-.029c-.49.018-.876.047-1.21.078A1.419 1.419 0 0 0 2.044 13 10.95 10.95 0 0 1 13 2.043zm-3.321 5.66c-.367-.326-1.159-.796-2.211-.896-.12.212-.239.528-.214 1.029.03.6.177 1.267.298 1.678l.074.248-.153.207c-.51.696-.786 1.536-.786 2.3 0 1.302.468 2.344 1.467 3.117.998.772 2.575 1.266 4.794 1.266 2.219 0 3.795-.494 4.793-1.267 1-.772 1.468-1.814 1.468-3.116v-.028c.046-.806-.218-1.568-.734-2.272l-.156-.213.079-.251c.12-.387.28-1.038.316-1.636.029-.5-.093-.83-.233-1.062-1.053.1-1.846.57-2.213.896l-.25.222-.305-.134c-.763-.334-1.684-.53-2.713-.53a7.21 7.21 0 0 0-2.775.535l-.301.123-.245-.216zm-5.087 5.83c.369.005.791.025 1.215.046.04.162.086.322.142.479-1.725.036-3.016.21-3.812.358a11.01 11.01 0 0 1-.075-.79 23.4 23.4 0 0 1 2.53-.093zm19.345.1a23.474 23.474 0 0 0-2.53-.092c-.401.005-.857.025-1.324.05-.04.16-.085.317-.14.47 1.77.028 3.096.201 3.92.352.033-.257.06-.517.074-.78zm-17.765.942a4.71 4.71 0 0 0 1.344 1.636c.803.622 1.848 1.056 3.124 1.288-.167.172-.319.36-.454.558l-.031-.027-.008.003c-.048.021-.294.129-.643.16-.319.028-.698.027-1.06.025H8.2c-.639 0-.92-.303-1.37-.852a3.702 3.702 0 0 0-.848-.815c-.302-.211-.56-.36-.878-.413l-.043-.008h-.044c-.243 0-.48.018-.7.27a.666.666 0 0 0-.136.555c.05.197.174.318.286.392.485.324.698.863.926 1.438.107.27.217.548.36.815.417.832 1.318 1.226 2.239 1.226h1.356v2.506a10.958 10.958 0 0 1-7.131-8.4c.798-.15 2.136-.331 3.955-.357zm17.612.354c-.829-.153-2.204-.334-4.063-.35a4.698 4.698 0 0 1-1.34 1.632c-.773.597-1.765 1.024-2.973 1.263.188.195.357.414.5.645.473.76.744 1.672.744 2.498v2.715a10.958 10.958 0 0 0 7.132-8.403zm-11.463 2.819h1.462c.424 0 .876.338 1.239.92.362.584.587 1.367.587 1.95v3.025a10.996 10.996 0 0 1-5.218 0v-3.026c0-.569.244-1.35.631-1.936.387-.586.875-.933 1.3-.933zm-4.12 1.513c-.824 0-1.37-.428-1.823-.897.01.024.018.049.027.073.093.258.194.536.272.681l.003.006.004.008c.21.418.664.65 1.308.65H9.45a4.66 4.66 0 0 1 .15-.55h-.005c-.388.035-.792.032-1.147.03l-.249-.001z" clip-rule="evenodd"/><path fill="#163150" d="M23.955 13.06l.25.01-.25-.01zm0 0l-.25-.01.25.01zm-.002.051l-.023.249.27.025.003-.271-.25-.003zm-1.21-.077l.01-.25-.01.25zm-2.557.031l-.247-.035-.043.3.302-.015-.012-.25zm.063-.781L20 12.27v.012h.25zm-.81-2.699l-.241-.07-.032.112.064.096.208-.138zm.317-1.655l.25.015-.25-.015zm-.608-2.094l.17-.182-.17.182zm-.151-.14l.17-.183-.072-.067h-.098v.25zm-3.15 1.05l-.09.233.133.052.113-.089-.156-.196zm-5.744.002l-.156.196.11.088.133-.05-.087-.234zm-3.15-1.052v-.25h-.099l-.072.066.17.184zm-.152.14l-.17-.184.17.183zm-.59 2.05l-.25.013.25-.012zm.3 1.695l.21.138.062-.094-.03-.11-.241.066zm-.806 3.472l-.012.25.302.014-.043-.3-.247.036zm-2.449-.029l-.009-.25.01.25zm-1.21.078l-.25.002.003.272.27-.025-.022-.25zm-.001-.048l-.25.01.25-.01zm5.423-6.247l.023-.248-.16-.016-.08.141.217.123zm2.211.896l-.166.187.166-.187zm-2.425.133l-.25.012.25-.012zm.298 1.678l-.24.07.24-.07zm.074.248l.201.148.074-.1-.036-.12-.24.072zm-.153.207l-.202-.148.202.148zm.68 5.417l.153-.198-.152.197zm9.588 0l-.152-.198.152.197zm1.468-3.13l-.25-.019v.018h.25zm0-.015l.25.018v-.004l-.25-.014zm-.734-2.272l-.202.148.202-.148zm-.156-.213l-.238-.074-.038.12.075.102.201-.148zm.079-.251l-.239-.075.239.075zm.316-1.636l-.25-.014.25.014zm-.233-1.062l.214-.129-.08-.134-.157.015.023.248zm-2.213.896l-.166-.187.166.187zm-.25.222l-.1.23.147.064.12-.107-.167-.187zm-.305-.134l.1-.23-.1.23zm-5.488.005l.095.231-.095-.231zm-.301.123l-.166.188.116.102.144-.058-.094-.232zm-4.117 5.66l.242-.06-.044-.18-.186-.01-.012.25zm-1.215-.046l.003-.25-.003.25zm1.357.525l.006.25.347-.008-.117-.327-.236.085zm-3.812.358l-.248.032.034.263.26-.049-.046-.246zm-.075-.79l-.024-.25-.24.024.014.24.25-.014zm19.346-.085l-.003-.25.003.25zm2.53.093l.249.014.013-.24-.24-.023-.023.249zm-3.855-.043l-.013-.25-.184.01-.045.18.242.06zm-.14.47l-.236-.085-.118.33.35.005.004-.25zm3.92.352l-.045.246.26.048.033-.262-.248-.032zM7.516 16.211l-.153.198.153-.198zm-1.344-1.636l.223-.111-.07-.14-.157.001.004.25zM10.64 17.5l.18.174.326-.336-.461-.084-.045.246zm-.454.558l-.164.189.213.185.158-.233-.207-.14zm-.031-.027l-.189-.164-.164.188.189.164.164-.188zm-.008.003l.1.23-.1-.23zm0 0l-.1-.23v.001l.1.23zm0 0l.1.23-.1-.23zm-.643.16l-.023-.25.023.25zm-1.06.025l.002-.25h-.001v.25zm0 0l-.002.25h.002v-.25zm-1.614-.852l-.201.149.007.009.194-.159zm-.848-.815l-.143.205.143-.205zm-.878-.413l-.042.246.042-.246zm-.043-.008l.04-.246-.02-.004h-.02v.25zm-.743.27l-.188-.165.188.165zm-.137.555l.243-.06-.243.06zm.286.392l.138-.208-.138.208zm.926 1.438l.232-.092-.232.092zm.36.815l.223-.112-.003-.006-.22.118zm3.595 1.226h.25v-.25h-.25v.25zm0 2.506l-.083.236.333.117v-.353h-.25zm-7.131-8.4l-.047-.246-.243.046.044.244.246-.044zm17.505-.353l.002-.25h-.157l-.07.139.224.111zm4.062.35l.247.044.043-.245-.244-.045-.046.246zm-5.404 1.282l-.152-.198.152.198zm-2.972 1.263l-.048-.246-.45.089.318.33.18-.173zm.5.645l.213-.132-.213.132zm.744 5.213h-.25v.353l.333-.117-.083-.236zm-1.043.31l.059.244.19-.047v-.196h-.25zm-5.218 0h-.25v.197l.191.047.06-.243zm-4.013-5.278l.18-.173-.415.258.235-.085zm.027.073l.235-.085-.235.085zm.272.681l.224-.112L6.897 19l-.22.118zm.003.006l-.224.112.007.012.217-.124zm.004.008l.224-.113-.007-.012-.217.124zm2.767.65v.25h.202l.042-.197-.244-.052zm.15-.55l.237.082.127-.366-.386.034.023.25zm-.003 0l-.057-.243.057.243zm-.002 0l.023.25-.023-.25zm-1.147.03l.002-.25-.002.25zM1.25 13C1.25 6.518 6.518 1.25 13 1.25v-.5C6.242.75.75 6.242.75 13h.5zM13 24.75C6.518 24.75 1.25 19.482 1.25 13h-.5c0 6.758 5.492 12.25 12.25 12.25v-.5zM24.75 13c0 6.482-5.268 11.75-11.75 11.75v.5c6.758 0 12.25-5.492 12.25-12.25h-.5zM13 1.25c6.482 0 11.75 5.268 11.75 11.75h.5C25.25 6.242 19.758.75 13 .75v.5zM24.206 13A11.2 11.2 0 0 0 13 1.793v.5A10.7 10.7 0 0 1 23.706 13h.5zm-.001.07l.002-.07h-.5l-.002.05.5.02zm0 0l-.5-.02.5.02zm-.002.044l.002-.045-.5-.02-.002.06.5.005zm-1.468.17c.485.017.865.045 1.195.076l.046-.498a21.48 21.48 0 0 0-1.223-.078l-.018.5zm-2.537.03a30.685 30.685 0 0 1 2.537-.03l.018-.5a31.199 31.199 0 0 0-2.58.031l.026.5zM20 12.284c0 .25-.025.498-.06.747l.495.07c.037-.262.065-.534.065-.816l-.5-.001zm-.77-2.56c.513.775.818 1.637.77 2.548l.5.025c.054-1.043-.297-2.009-.852-2.849l-.417.276zm.277-1.807c-.036.613-.18 1.158-.308 1.6l.48.139c.13-.45.288-1.038.328-1.71l-.5-.03zm-.529-1.897c.5.466.572 1.173.53 1.897l.499.029c.043-.742-.01-1.66-.688-2.291l-.34.365zm-.15-.14l.15.14.341-.366-.15-.14-.341.365zm-.036.067h.206v-.5h-.206v.5zm-2.788.996c.56-.444 1.465-.996 2.788-.996v-.5c-1.476 0-2.488.62-3.1 1.104l.312.392zM13 6.467a7.59 7.59 0 0 1 2.757.512l.18-.466A8.09 8.09 0 0 0 13 5.967v.5zm-2.81.516A8.004 8.004 0 0 1 13 6.467v-.5a8.497 8.497 0 0 0-2.984.547l.174.469zM7.157 5.946c1.325 0 2.23.554 2.79.998l.311-.392c-.61-.485-1.623-1.106-3.101-1.106v.5zm-.205 0h.205v-.5h-.205v.5zm.02.073l.15-.14-.34-.367-.15.14.34.367zM6.46 7.874c-.036-.726.028-1.407.51-1.856l-.34-.366c-.663.616-.705 1.515-.67 2.247l.5-.025zm.292 1.642c-.125-.463-.262-1.027-.292-1.642l-.5.025c.033.67.182 1.276.31 1.748l.482-.131zm-.86 2.753c0-.87.307-1.76.828-2.55l-.418-.275c-.564.855-.91 1.84-.91 2.825h.5zm.06.749a5.32 5.32 0 0 1-.06-.749h-.5c0 .283.027.555.064.819l.495-.07zm-2.688.256c.658-.023 1.49-.015 2.428.029l.023-.5a31.192 31.192 0 0 0-2.469-.028l.018.5zm-1.195.077c.33-.03.71-.06 1.195-.077l-.018-.5c-.496.018-.886.048-1.224.079l.047.498zm-.275-.286l.002.04.5-.005-.002-.057-.5.022zM1.793 13l.002.065.5-.022L2.293 13h-.5zM13 1.793A11.2 11.2 0 0 0 1.793 13h.5A10.7 10.7 0 0 1 13 2.293v-.5zM7.444 7.056c.994.095 1.738.54 2.069.834l.332-.374c-.402-.357-1.243-.852-2.354-.957l-.047.497zm.06.767c-.023-.45.083-.719.181-.892l-.435-.247c-.142.25-.273.613-.246 1.164l.5-.025zm.288 1.62a7.585 7.585 0 0 1-.289-1.62l-.499.025a8.08 8.08 0 0 0 .308 1.736l.48-.14zm.073.248l-.073-.248-.48.142.074.248.48-.142zm-.19.426l.152-.207-.403-.297-.153.208.403.296zm-.738 2.152c0-.707.257-1.497.737-2.152l-.403-.295c-.539.735-.834 1.627-.834 2.447h.5zm1.37 2.919c-.932-.72-1.37-1.686-1.37-2.919h-.5c0 1.372.498 2.49 1.564 3.314l.305-.395zm4.641 1.214c-2.186 0-3.702-.488-4.642-1.214l-.305.395c1.057.818 2.696 1.32 4.947 1.32v-.5zm4.64-1.214c-.94.726-2.454 1.214-4.64 1.214v.5c2.251 0 3.889-.501 4.946-1.319l-.305-.395zm1.37-2.919c0 1.233-.438 2.198-1.37 2.919l.306.395c1.066-.824 1.565-1.942 1.565-3.314h-.5zm0-.014v.014h.5v-.014h-.5zm.003-.032l-.002.014.5.036v-.014l-.498-.036zm-.687-2.106c.488.666.727 1.372.686 2.11l.5.028c.048-.874-.24-1.691-.783-2.433l-.403.295zm-.156-.213l.155.213.404-.295-.156-.213-.403.295zm.041-.474l-.078.252.477.149.078-.252-.477-.149zm.305-1.575a7.15 7.15 0 0 1-.305 1.575l.477.15c.125-.398.29-1.07.327-1.696l-.499-.03zm-.197-.918c.116.19.223.47.197.918l.5.029c.032-.552-.104-.932-.269-1.206l-.428.259zm-1.833.953c.331-.295 1.076-.74 2.07-.834l-.046-.497c-1.112.105-1.954.6-2.356.957l.332.374zm-.25.222l.25-.222-.332-.374-.25.223.332.373zm-.572-.092l.306.134.201-.458-.306-.134-.201.458zM13 7.51c.998 0 1.884.191 2.612.51l.2-.458c-.796-.349-1.751-.551-2.812-.551v.5zm-2.68.517A6.96 6.96 0 0 1 13 7.511v-.5a7.46 7.46 0 0 0-2.87.554l.19.462zm-.302.124l.302-.124-.19-.463-.301.124.19.463zm-.505-.26l.245.216.331-.375-.244-.216-.332.374zM5.82 13.328a34.11 34.11 0 0 0-1.224-.046l-.006.5c.363.005.781.024 1.205.046l.025-.5zm.366.644a4.702 4.702 0 0 1-.136-.455l-.485.121c.042.169.09.337.15.503l.47-.169zm-4.002.69c.783-.147 2.06-.32 3.772-.355l-.01-.5c-1.74.037-3.045.212-3.854.363l.092.491zm-.37-1.023c.015.274.042.543.076.808l.496-.064a10.76 10.76 0 0 1-.074-.772l-.499.028zm2.782-.357a23.63 23.63 0 0 0-2.557.094l.047.498c.58-.056 1.4-.106 2.504-.092l.006-.5zm16.816.508a23.198 23.198 0 0 1 2.503.092l.047-.498a23.719 23.719 0 0 0-2.556-.094l.006.5zm-1.314.05c.465-.025.917-.045 1.314-.05l-.006-.5c-.407.005-.867.025-1.335.05l.027.5zm.08.304c.06-.162.107-.328.149-.493l-.485-.122a4.708 4.708 0 0 1-.134.446l.47.17zm3.73.023c-.836-.154-2.176-.329-3.96-.357l-.008.5c1.756.027 3.068.2 3.879.348l.09-.492zm-.22-.548c-.014.255-.04.509-.072.762l.496.063c.033-.261.06-.527.076-.797l-.5-.028zM7.67 16.013a4.462 4.462 0 0 1-1.274-1.55l-.447.224a4.96 4.96 0 0 0 1.415 1.722l.306-.396zm3.016 1.24c-1.246-.227-2.251-.648-3.016-1.24l-.306.396c.842.651 1.927 1.098 3.232 1.336l.09-.492zm-.292.945c.127-.188.27-.364.426-.525l-.358-.348a4.366 4.366 0 0 0-.481.592l.413.28zm-.402.02l.031.028.329-.377-.032-.028-.328.377zm.256.044h-.002l-.011.005a.243.243 0 0 1-.14.005.25.25 0 0 1-.128-.406l.378.328a.25.25 0 0 0-.127-.406.25.25 0 0 0-.078-.008c-.024.002-.043.007-.048.008a.247.247 0 0 0-.016.005l-.018.007-.01.004.2.458zm0 0l-.2-.458.2.459zm0 0l-.2-.458.2.458zm-.721.18c.388-.035.663-.154.72-.18l-.2-.458a1.813 1.813 0 0 1-.565.14l.045.498zm-1.082.026c.357.002.75.004 1.082-.026l-.045-.498c-.304.027-.67.026-1.035.024l-.002.5zm0 0v-.5.5zm0 0v-.5.5zm0 0v-.5.5zm0 0v-.5.5zm-.244 0h.243l.002-.5H8.2v.5zm-1.564-.944c.222.27.426.511.665.679.252.176.534.264.9.264v-.5c-.274 0-.453-.062-.614-.174-.173-.122-.335-.307-.564-.586l-.387.317zm-.797-.768c.277.194.56.448.79.759l.402-.299a3.953 3.953 0 0 0-.906-.87l-.286.41zm-.777-.372c.262.044.482.166.777.372l.286-.41c-.309-.216-.604-.392-.98-.455l-.082.493zm-.042-.007l.043.007.082-.493-.043-.007-.082.493zm-.003.003h.044v-.5h-.044v.5zm-.51.184a.476.476 0 0 1 .225-.154.969.969 0 0 1 .285-.03v-.5c-.124 0-.276.004-.432.052a.976.976 0 0 0-.455.303l.376.33zm-.083.33a.42.42 0 0 1 .082-.33l-.376-.33a.915.915 0 0 0-.191.781l.485-.12zm.181.245a.408.408 0 0 1-.181-.245l-.485.122a.912.912 0 0 0 .389.54l.277-.417zm1.02 1.554c-.22-.56-.458-1.18-1.02-1.554l-.277.416c.409.273.599.73.833 1.322l.464-.184zm.348.79a7.571 7.571 0 0 1-.348-.79l-.464.184c.106.268.22.56.371.841l.441-.236zm2.019 1.093c-.858 0-1.653-.366-2.016-1.088l-.447.224c.473.942 1.479 1.364 2.463 1.364v-.5zm1.356 0H7.992v.5h1.356v-.5zm.25 2.756v-2.506h-.5v2.506h.5zM1.97 14.976a11.208 11.208 0 0 0 7.294 8.592l.166-.472a10.708 10.708 0 0 1-6.968-8.208l-.492.088zm4.197-.65c-1.833.025-3.185.207-3.998.36l.093.492c.785-.148 2.108-.328 3.912-.353l-.007-.5zm13.551.503c1.844.016 3.205.195 4.02.346l.09-.492c-.842-.155-2.232-.338-4.105-.354l-.005.5zm-1.186 1.58a4.948 4.948 0 0 0 1.412-1.718l-.447-.223a4.45 4.45 0 0 1-1.27 1.545l.305.396zm-3.077 1.31c1.238-.245 2.268-.685 3.077-1.31l-.306-.396c-.735.569-1.69.982-2.867 1.215l.096.49zm.665.268a4.175 4.175 0 0 0-.533-.687l-.36.347c.175.183.334.387.468.604l.425-.264zm.781 2.63c0-.877-.287-1.834-.781-2.63l-.425.264c.45.724.706 1.59.706 2.366h.5zm0 2.715v-2.715h-.5v2.715h.5zm6.636-8.447a10.708 10.708 0 0 1-6.969 8.211l.166.472a11.208 11.208 0 0 0 7.296-8.595l-.493-.088zm-9.755 2.613H12.32v.5h1.462v-.5zm1.451 1.039c-.378-.609-.896-1.04-1.451-1.04v.5c.293 0 .68.246 1.026.804l.425-.264zm.625 2.08c0-.632-.24-1.46-.625-2.08l-.425.264c.34.547.55 1.285.55 1.816h.5zm0 3.026v-3.026h-.5v3.026h.5zM13 24.206c.92 0 1.813-.112 2.668-.32l-.118-.486c-.818.2-1.671.306-2.55.306v.5zm-2.668-.32c.855.208 1.748.32 2.668.32v-.5a10.77 10.77 0 0 1-2.55-.306l-.118.486zm-.19-3.269v3.026h.5v-3.026h-.5zm.671-2.074c-.41.621-.672 1.45-.672 2.074h.5c0-.513.226-1.248.59-1.798l-.418-.276zm1.508-1.045c-.55 0-1.104.435-1.508 1.045l.418.276c.37-.561.793-.821 1.09-.821v-.5zm-6.123 1.04c.469.485 1.077.973 2.002.973v-.5c-.721 0-1.206-.369-1.642-.82l-.36.347zm.442-.186a61.68 61.68 0 0 0-.027-.073l-.47.17c.01.024.018.049.027.073l.47-.17zm.257.648a6.293 6.293 0 0 1-.257-.648l-.47.17c.09.248.198.549.287.715l.44-.237zm.007.012l-.003-.006-.448.224.003.006.448-.224zm-.003-.005L6.897 19l-.434.248.004.008.434-.249zm1.09.526c-.585 0-.93-.208-1.083-.513l-.448.223c.267.533.83.79 1.532.79v-.5zm1.46 0H7.99v.5h1.46v-.5zm-.086-.384c-.067.195-.117.39-.159.58l.49.106a4.41 4.41 0 0 1 .142-.521l-.473-.165zm.29.326a.13.13 0 0 1 .006 0h-.003a.233.233 0 0 1-.034.005l-.045-.498-.037.006-.004.001h.003l.114.486zm-.036.006a.152.152 0 0 0 .036-.006l-.114-.486a.25.25 0 0 1 .033-.006l.045.498zm-1.172.031c.353.002.77.005 1.172-.03l-.045-.499c-.374.034-.766.031-1.123.029l-.004.5zm-.247-.001l.247.001.004-.5-.25-.001v.5z"/></svg>