<svg xmlns="http://www.w3.org/2000/svg" width="25" height="25" fill="none"><path fill="#163150" fill-rule="evenodd" d="M3.738 1C2.232 1 1 2.256 1 3.79v17.861c0 1.535 1.232 2.79 2.738 2.79h9.218c.059.01.12.01.178 0h3.107c.06.01.12.01.179 0h4.842c1.506 0 2.738-1.255 2.738-2.79V3.791C24 2.256 22.768 1 21.262 1H3.738zm0 1.116h17.524c.914 0 1.643.743 1.643 1.675v17.86c0 .931-.73 1.675-1.643 1.675H16.88v-7.814h2.092l.767-3.907H16.88v-1.117c0-.31.029-.335.131-.403.103-.068.42-.155.964-.155h1.643V6.787l-.312-.151s-1.258-.613-2.974-.613c-1.232 0-2.244.5-2.892 1.326-.648.825-.941 1.93-.941 3.14v1.116h-1.643v3.907H12.5v7.814H3.738c-.914 0-1.643-.744-1.643-1.675V3.791c0-.932.73-1.675 1.643-1.675zm14.786 5.415c-.336-.136-1.052-.391-2.19-.391-.959 0-1.59.336-2.037.907-.448.57-.702 1.418-.702 2.441v2.233h-1.643v1.674h1.643v8.93h2.19v-8.93h2.29l.328-1.674h-2.617v-2.233c0-.523.204-1.058.63-1.34.425-.28.93-.334 1.56-.334h.548V7.531z" clip-rule="evenodd"/><path fill="#163150" d="M12.956 24.442l.033-.197-.017-.003h-.016v.2zm.178 0v-.2h-.017l-.016.003.033.197zm3.107 0l.034-.197-.017-.003h-.017v.2zm.179 0v-.2h-.017l-.016.003.033.197zm.461-1.116h-.2v.2h.2v-.2zm0-7.814v-.2h-.2v.2h.2zm2.092 0v.2h.165l.031-.162-.196-.038zm.767-3.907l.196.038.047-.238h-.243v.2zm-2.859 0h-.2v.2h.2v-.2zm.131-1.52l.11.167-.11-.167zm2.607-.155v.2h.2v-.2h-.2zm0-3.143h.2v-.125l-.113-.055-.087.18zm-.312-.151l-.088.18.088-.18zm-5.866.713l-.157-.124.157.124zm-.941 4.256v.2h.2v-.2h-.2zm-1.643 0v-.2h-.2v.2h.2zm0 3.907h-.2v.2h.2v-.2zm1.643 0h.2v-.2h-.2v.2zm0 7.814v.2h.2v-.2h-.2zM18.524 7.53h.2v-.135l-.125-.05-.075.185zm-4.929 5.19v.2h.2v-.2h-.2zm-1.643 0v-.2h-.2v.2h.2zm0 1.674h-.2v.2h.2v-.2zm1.643 0h.2v-.2h-.2v.2zm0 8.93h-.2v.2h.2v-.2zm2.19 0v.2h.2v-.2h-.2zm0-8.93v-.2h-.2v.2h.2zm2.29 0v.2h.164l.032-.161-.196-.039zm.328-1.674l.196.038.047-.238h-.243v.2zm-2.617 0h-.2v.2h.2v-.2zm.63-3.572l-.11-.167.11.167zm2.108-.335v.2h.2v-.2h-.2zM1.2 3.791C1.2 2.363 2.346 1.2 3.738 1.2V.8C2.118.8.8 2.15.8 3.79h.4zm0 17.86V3.791H.8v17.86h.4zm2.538 2.59c-1.392 0-2.538-1.162-2.538-2.59H.8c0 1.642 1.318 2.99 2.938 2.99v-.4zm9.218 0H3.738v.4h9.218v-.4zm.145.004a.335.335 0 0 1-.112 0l-.067.394a.741.741 0 0 0 .245 0l-.066-.394zm3.14-.003h-3.107v.4h3.107v-.4zm.146.003a.335.335 0 0 1-.112 0l-.067.394a.741.741 0 0 0 .245 0l-.066-.394zm4.875-.003H16.42v.4h4.842v-.4zm2.538-2.59c0 1.427-1.146 2.59-2.538 2.59v.4c1.62 0 2.938-1.35 2.938-2.99h-.4zm0-17.861v17.86h.4V3.791h-.4zM21.262 1.2c1.392 0 2.538 1.163 2.538 2.59h.4C24.2 2.15 22.882.8 21.262.8v.4zm-17.524 0h17.524V.8H3.738v.4zm17.524.716H3.738v.4h17.524v-.4zm1.843 1.875c0-1.038-.815-1.875-1.843-1.875v.4c.8 0 1.443.65 1.443 1.475h.4zm0 17.86V3.791h-.4v17.86h.4zm-1.843 1.875c1.028 0 1.843-.837 1.843-1.875h-.4c0 .825-.643 1.475-1.443 1.475v.4zm-4.381 0h4.38v-.4h-4.38v.4zm-.2-8.014v7.814h.4v-7.814h-.4zm2.292-.2h-2.092v.4h2.092v-.4zm.57-3.746l-.766 3.907.392.077.767-3.907-.392-.077zm-2.662.239h2.859v-.4h-2.86v.4zm-.2-1.317v1.117h.4v-1.117h-.4zm.221-.57c-.051.034-.136.088-.18.207-.036.093-.041.213-.041.363h.4c0-.075.002-.128.005-.166a.249.249 0 0 1 .01-.056l-.003.004a.032.032 0 0 1-.005.006l.008-.006a.755.755 0 0 1 .027-.018l-.22-.334zm1.074-.188c-.282 0-.51.023-.684.056a1.121 1.121 0 0 0-.39.132l.22.334a.812.812 0 0 1 .244-.073c.146-.028.348-.049.61-.049v-.4zm1.643 0h-1.643v.4h1.643v-.4zm-.2-2.943V9.93h.4V6.787h-.4zm-.2.029l.313.151.174-.36-.312-.151-.175.36zm-2.886-.593a7.53 7.53 0 0 1 2.677.503 4.337 4.337 0 0 1 .207.089h.002l.088-.18.087-.179h-.001l-.004-.002a.73.73 0 0 0-.058-.027 7.098 7.098 0 0 0-.812-.29 7.931 7.931 0 0 0-2.186-.314v.4zM13.6 7.473c.607-.774 1.559-1.25 2.734-1.25v-.4c-1.289 0-2.36.525-3.05 1.402l.316.247zm-.899 3.015c0-1.18.287-2.236.899-3.016l-.315-.247c-.684.871-.984 2.024-.984 3.263h.4zm0 1.117v-1.117h-.4v1.117h.4zm-1.843.2H12.5v-.4h-1.643v.4zm.2 3.707v-3.907h-.4v3.907h.4zm1.443-.2h-1.643v.4H12.5v-.4zm.2 8.014v-7.814h-.4v7.814h.4zm-8.962.2H12.5v-.4H3.738v.4zM1.895 21.65c0 1.038.815 1.875 1.843 1.875v-.4c-.8 0-1.443-.65-1.443-1.475h-.4zm0-17.86v17.86h.4V3.791h-.4zm1.843-1.875c-1.028 0-1.843.837-1.843 1.875h.4c0-.825.643-1.475 1.443-1.475v-.4zM16.333 7.34c1.106 0 1.797.248 2.116.376l.15-.37c-.352-.143-1.095-.406-2.266-.406v.4zm-1.879.83c.407-.518.977-.83 1.88-.83v-.4c-1.015 0-1.706.36-2.194.983l.314.247zm-.659 2.318c0-.993.247-1.793.66-2.318l-.315-.247c-.484.616-.745 1.512-.745 2.565h.4zm0 2.233v-2.233h-.4v2.233h.4zm-1.843.2h1.643v-.4h-1.643v.4zm.2 1.474v-1.674h-.4v1.674h.4zm1.443-.2h-1.643v.4h1.643v-.4zm.2 9.13v-8.93h-.4v8.93h.4zm1.99-.2h-2.19v.4h2.19v-.4zm-.2-8.73v8.93h.4v-8.93h-.4zm2.49-.2h-2.29v.4h2.29v-.4zm.132-1.513l-.329 1.675.393.077.328-1.675-.392-.077zm-2.421.239h2.617v-.4h-2.617v.4zm-.2-2.433v2.233h.4v-2.233h-.4zm.72-1.506c-.5.33-.72.94-.72 1.506h.4c0-.48.188-.94.54-1.173l-.22-.333zm1.67-.368c-.634 0-1.192.051-1.67.368l.22.333c.372-.246.824-.301 1.45-.301v-.4zm.548 0h-.548v.4h.548v-.4zm-.2-1.083v1.283h.4V7.531h-.4z"/></svg>