<svg xmlns="http://www.w3.org/2000/svg" width="24" height="23" fill="none"><path fill="#163150" fill-rule="evenodd" d="M12.75 1.5c.332-.309.781-.5 1.25-.5s.87.188 1.156.422c.195.16.353.334.505.503.072.08.142.157.214.231.389.399.781.742 1.672.828A2.52 2.52 0 0 1 20 1c1.375 0 2.5 1.125 2.5 2.5S21.375 6 20 6c-1.213 0-2.23-.88-2.453-2.031-1.2-.112-1.92-.643-2.39-1.125l-.218-.226c-.163-.171-.3-.315-.423-.415C14.342 2.063 14.23 2 14 2a.747.747 0 0 0-.563.219c-.173.16-.355.44-.5.828-.255.687-.39 1.726-.421 2.969 2.384.08 4.582.7 6.343 1.718a2.758 2.758 0 0 1 3.844.063 2.753 2.753 0 0 1 0 3.906l-.125.125c.266.69.422 1.416.422 2.172 0 2.264-1.283 4.293-3.281 5.719C17.72 21.144 14.996 22 12 22c-2.996 0-5.72-.855-7.719-2.281C2.283 18.293 1 16.264 1 14c0-.756.156-1.482.422-2.172l-.125-.125a2.753 2.753 0 0 1 0-3.906 2.756 2.756 0 0 1 3.844-.063c1.77-1.023 3.976-1.644 6.375-1.718.027-1.319.162-2.446.484-3.313.182-.486.418-.894.75-1.203zm8.75 2c0-.834-.666-1.5-1.5-1.5s-1.5.666-1.5 1.5S19.166 5 20 5s1.5-.666 1.5-1.5zM12 7c2.805 0 5.338.807 7.14 2.094C20.944 10.38 22 12.114 22 14c0 1.887-1.057 3.62-2.86 4.906C17.339 20.193 14.806 21 12 21c-2.805 0-5.338-.807-7.14-2.094C3.056 17.62 2 15.886 2 14c0-1.887 1.057-3.62 2.86-4.906C6.661 7.807 9.194 7 12 7zM4.266 8.297a1.729 1.729 0 0 0-1.016-.328A1.76 1.76 0 0 0 2 8.5c-.67.67-.709 1.648-.125 2.36.568-.975 1.389-1.844 2.39-2.563zm16.484-.328c.445 0 .893.174 1.25.531.67.67.709 1.648.125 2.36-.568-.975-1.389-1.844-2.39-2.563a1.728 1.728 0 0 1 1.015-.328zM6 12.5c0-1.1.9-2 2-2s2 .9 2 2-.9 2-2 2-2-.9-2-2zm10-2c-1.1 0-2 .9-2 2s.9 2 2 2 2-.9 2-2-.9-2-2-2zm-7 2c0-.559-.441-1-1-1-.559 0-1 .441-1 1 0 .559.441 1 1 1 .559 0 1-.441 1-1zm7-1c.559 0 1 .441 1 1 0 .559-.441 1-1 1-.559 0-1-.441-1-1 0-.559.441-1 1-1zm.5 4.938a.505.505 0 0 1 .078-.016.5.5 0 0 1 .375.86s-.385.554-1.187 1.062c-.803.508-2.045 1-3.766 1-1.72 0-2.963-.492-3.766-1-.802-.508-1.187-1.063-1.187-1.063a.5.5 0 0 1 .281-.781.499.499 0 0 1 .531.219s.262.363.922.781c.66.418 1.69.844 3.219.844 1.53 0 2.559-.426 3.219-.844.66-.418.922-.781.922-.781a.503.503 0 0 1 .359-.282z" clip-rule="evenodd"/><path fill="#163150" d="M12.75 1.5l-.17-.183.17.183zm2.406-.078l.158-.194-.158.194zm.505.503l.186-.167-.186.167zm.214.231l-.179.175.179-.175zm1.672.828l-.024.25.222.02.046-.218-.244-.052zm0 .985l.245-.048-.035-.184-.187-.017-.023.249zm-2.39-1.125l.178-.175-.179.175zm-.218-.226l.181-.172-.004-.005-.177.177zm0 0l.177-.177-.004-.003-.173.18zm0 0l-.18.173.007.008.173-.18zm-.423-.415l-.158.194.158-.194zm-1.079.016l-.169-.184.17.184zm-.5.828l.235.087-.235-.087zm-.421 2.969l-.25-.007-.007.248.248.008.009-.25zm6.343 1.718l-.125.217.161.093.135-.127-.17-.183zm3.72 4.094l-.178-.177-.115.115.059.152.233-.09zM4.28 19.718l.145-.203-.145.204zm-2.86-7.89l.234.09.059-.152-.115-.115-.177.177zm-.124-.125l.177-.177-.177.177zm0-3.906l.177.177-.177-.177zm3.844-.063l-.171.183.135.127.16-.093-.124-.217zm6.375-1.718l.007.25.238-.008.005-.237-.25-.005zM12 2.703l-.234-.087.234.087zM4.266 8.297l.145.203.283-.203-.282-.203-.146.203zM2 8.5l-.177-.177L2 8.5zm-.125 2.36l-.193.158.228.278.181-.31-.216-.127zm20.25 0l-.216.125.181.31.228-.277-.193-.159zm-2.39-2.563l-.147-.203-.282.203.283.203.145-.203zm-3.157 8.125l-.014-.25h-.01l-.011.002.035.248zm-.078.015l.048.246.013-.003.012-.004-.073-.238zm.453.844l-.173-.18-.018.017-.014.02.205.143zm-8.719 1.063l.134-.212-.134.212zM7.047 17.28l.205-.142-.004-.006-.201.148zm-.068-.465l.235.086V16.9l-.235-.085zm.35-.316l-.057-.244-.005.002.061.242zm.53.219l-.21.134.003.006.005.006.202-.146zm.922.781l-.133.211.133-.211zm7.36-.781l.203.146.013-.02.01-.02-.226-.106zM14 .75c-.536 0-1.045.218-1.42.567l.34.366A1.604 1.604 0 0 1 14 1.25v-.5zm1.314.478A2.085 2.085 0 0 0 14 .75v.5c.4 0 .747.16.998.366l.316-.388zm.533.53c-.15-.167-.32-.357-.533-.53l-.316.388c.178.145.324.306.477.476l.372-.335zm.207.224a7.858 7.858 0 0 1-.207-.224l-.372.334c.071.08.145.16.221.239l.358-.35zm1.517.754c-.415-.04-.702-.14-.925-.266-.226-.128-.401-.293-.592-.488l-.358.349c.198.202.413.41.703.574.293.166.649.282 1.124.328l.048-.497zM20 .75a2.77 2.77 0 0 0-2.698 2.182l.49.104A2.27 2.27 0 0 1 20 1.25v-.5zm2.75 2.75A2.757 2.757 0 0 0 20 .75v.5a2.257 2.257 0 0 1 2.25 2.25h.5zM20 6.25a2.757 2.757 0 0 0 2.75-2.75h-.5A2.257 2.257 0 0 1 20 5.75v.5zm-2.699-2.234A2.763 2.763 0 0 0 20 6.25v-.5a2.263 2.263 0 0 1-2.208-1.829l-.49.095zm-2.324-.998c.5.513 1.274 1.082 2.547 1.2l.046-.498c-1.125-.105-1.794-.6-2.235-1.05l-.358.348zm-.219-.227l.22.228.357-.35a22.847 22.847 0 0 1-.215-.223l-.362.345zm.005.004l.353-.354-.353.354zm.003.004l.346-.361-.346.36zm-.408-.402c.108.087.233.218.4.394l.362-.345c-.159-.167-.309-.325-.447-.437l-.315.388zM14 2.25c.09 0 .142.012.181.029a.773.773 0 0 1 .177.118l.315-.388a1.248 1.248 0 0 0-.296-.19A.935.935 0 0 0 14 1.75v.5zm-.393.153c.07-.065.126-.1.18-.12A.577.577 0 0 1 14 2.25v-.5a1.06 1.06 0 0 0-.392.066 1.06 1.06 0 0 0-.34.219l.339.368zm-.435.731c.136-.365.3-.606.435-.731l-.339-.368c-.212.195-.412.513-.565.925l.469.174zm-.407 2.888c.032-1.235.166-2.24.407-2.888l-.469-.174c-.27.727-.406 1.8-.437 3.05l.5.012zm6.22 1.496c-1.801-1.04-4.04-1.67-6.461-1.752l-.017.5c2.348.078 4.504.69 6.227 1.685l.25-.433zm1.765-.784c-.74 0-1.48.273-2.062.818l.342.365a2.508 2.508 0 0 1 1.72-.683v-.5zm2.13.886a3.006 3.006 0 0 0-2.13-.886v.5c.64 0 1.284.247 1.776.74l.354-.354zm0 4.26a3.003 3.003 0 0 0 0-4.26l-.354.354a2.502 2.502 0 0 1 0 3.552l.354.354zm-.125.125l.125-.125-.354-.354-.125.125.354.354zM23.25 14a6.27 6.27 0 0 0-.439-2.262l-.466.18c.256.665.405 1.361.405 2.082h.5zm-3.386 5.922c2.046-1.46 3.386-3.557 3.386-5.922h-.5c0 2.163-1.226 4.123-3.177 5.515l.291.407zM12 22.25c3.042 0 5.819-.868 7.864-2.328l-.29-.407C17.622 20.907 14.95 21.75 12 21.75v.5zm-7.864-2.328C6.181 21.382 8.958 22.25 12 22.25v-.5c-2.95 0-5.623-.843-7.574-2.235l-.29.407zM.75 14c0 2.365 1.34 4.463 3.386 5.922l.29-.407C2.476 18.123 1.25 16.163 1.25 14h-.5zm.439-2.262A6.27 6.27 0 0 0 .75 14h.5c0-.72.149-1.417.405-2.082l-.466-.18zm-.069.142l.125.125.354-.354-.125-.125-.354.354zm0-4.26a3.003 3.003 0 0 0 0 4.26l.354-.354a2.503 2.503 0 0 1 0-3.552L1.12 7.62zm2.13-.886c-.77 0-1.54.297-2.13.886l.354.354a2.506 2.506 0 0 1 1.776-.74v-.5zm2.062.818a3.008 3.008 0 0 0-2.062-.818v.5c.616 0 1.234.228 1.72.683l.342-.365zm6.196-1.786c-2.436.075-4.684.706-6.493 1.752l.25.433c1.731-1.001 3.897-1.612 6.258-1.685l-.015-.5zm.258-3.15c-.337.907-.473 2.067-.5 3.394l.5.01c.027-1.309.16-2.402.468-3.23l-.468-.174zm.814-1.3c-.37.345-.624.791-.814 1.3l.468.175c.174-.464.392-.834.686-1.108l-.34-.366zM20 2.25c.696 0 1.25.554 1.25 1.25h.5c0-.972-.778-1.75-1.75-1.75v.5zM18.75 3.5c0-.696.554-1.25 1.25-1.25v-.5c-.972 0-1.75.778-1.75 1.75h.5zM20 4.75c-.696 0-1.25-.554-1.25-1.25h-.5c0 .972.778 1.75 1.75 1.75v-.5zm1.25-1.25c0 .696-.554 1.25-1.25 1.25v.5c.972 0 1.75-.778 1.75-1.75h-.5zm-1.964 5.39C17.436 7.57 14.85 6.75 12 6.75v.5c2.76 0 5.24.794 6.995 2.047l.29-.407zM22.25 14c0-1.988-1.114-3.789-2.964-5.11l-.29.407C20.75 10.551 21.75 12.214 21.75 14h.5zm-2.964 5.11c1.85-1.321 2.964-3.122 2.964-5.11h-.5c0 1.786-1 3.45-2.755 4.703l.29.407zM12 21.25c2.85 0 5.436-.82 7.286-2.14l-.29-.407C17.24 19.956 14.758 20.75 12 20.75v.5zm-7.286-2.14c1.85 1.32 4.436 2.14 7.286 2.14v-.5c-2.76 0-5.24-.794-6.995-2.047l-.29.407zM1.75 14c0 1.988 1.114 3.789 2.964 5.11l.29-.407C3.25 17.449 2.25 15.786 2.25 14h-.5zm2.964-5.11C2.864 10.211 1.75 12.012 1.75 14h.5c0-1.786 1-3.45 2.755-4.703l-.29-.407zM12 6.75c-2.85 0-5.436.82-7.286 2.14l.29.407C6.76 8.044 9.242 7.25 12 7.25v-.5zM3.25 8.219c.301 0 .605.09.87.28l.292-.405A1.979 1.979 0 0 0 3.25 7.72v.5zm-1.073.458a1.51 1.51 0 0 1 1.073-.458v-.5c-.512 0-1.023.2-1.427.604l.354.354zM2.068 10.7c-.502-.612-.47-1.445.109-2.024l-.354-.354c-.76.761-.807 1.885-.141 2.695l.386-.317zM4.12 8.094c-1.027.736-1.873 1.63-2.461 2.64l.432.251c.548-.94 1.343-1.784 2.32-2.485l-.291-.406zm18.057.23a2.009 2.009 0 0 0-1.427-.605v.5c.379 0 .762.147 1.073.458l.354-.354zm.141 2.694c.666-.81.62-1.934-.141-2.695l-.354.354c.58.579.611 1.412.109 2.024l.386.317zM19.588 8.5c.978.701 1.773 1.545 2.321 2.485l.432-.252c-.588-1.009-1.434-1.903-2.46-2.64l-.292.407zm1.162-.781c-.402 0-.809.12-1.162.375l.293.406c.264-.191.568-.281.869-.281v-.5zM8 10.25a2.256 2.256 0 0 0-2.25 2.25h.5c0-.961.788-1.75 1.75-1.75v-.5zm2.25 2.25A2.256 2.256 0 0 0 8 10.25v.5c.962 0 1.75.789 1.75 1.75h.5zM8 14.75a2.256 2.256 0 0 0 2.25-2.25h-.5c0 .961-.788 1.75-1.75 1.75v.5zM5.75 12.5A2.256 2.256 0 0 0 8 14.75v-.5c-.962 0-1.75-.789-1.75-1.75h-.5zm8.5 0c0-.961.789-1.75 1.75-1.75v-.5a2.256 2.256 0 0 0-2.25 2.25h.5zM16 14.25c-.961 0-1.75-.789-1.75-1.75h-.5A2.256 2.256 0 0 0 16 14.75v-.5zm1.75-1.75c0 .961-.788 1.75-1.75 1.75v.5a2.256 2.256 0 0 0 2.25-2.25h-.5zM16 10.75c.962 0 1.75.789 1.75 1.75h.5A2.256 2.256 0 0 0 16 10.25v.5zm-8 1c.42 0 .75.33.75.75h.5c0-.697-.553-1.25-1.25-1.25v.5zm-.75.75c0-.42.33-.75.75-.75v-.5c-.697 0-1.25.553-1.25 1.25h.5zm.75.75c-.42 0-.75-.33-.75-.75h-.5c0 .697.553 1.25 1.25 1.25v-.5zm.75-.75c0 .42-.33.75-.75.75v.5c.697 0 1.25-.553 1.25-1.25h-.5zm8.5 0c0-.697-.553-1.25-1.25-1.25v.5c.42 0 .75.33.75.75h.5zM16 13.75c.697 0 1.25-.553 1.25-1.25h-.5c0 .42-.33.75-.75.75v.5zm-1.25-1.25c0 .697.553 1.25 1.25 1.25v-.5c-.42 0-.75-.33-.75-.75h-.5zM16 11.25c-.697 0-1.25.553-1.25 1.25h.5c0-.42.33-.75.75-.75v-.5zm.543 4.924c-.027.004-.07.01-.116.025l.146.477a.32.32 0 0 1 .04-.007l-.07-.495zm.75.446a.75.75 0 0 0-.729-.448l.028.5a.25.25 0 0 1 .244.15l.457-.202zm-.167.841a.75.75 0 0 0 .167-.84l-.457.2a.25.25 0 0 1-.056.28l.346.36zM15.9 18.556c.421-.266.733-.545.94-.759a3.918 3.918 0 0 0 .313-.362l.004-.007.002-.002v-.001l-.205-.143a46.372 46.372 0 0 1-.205-.142l-.002.003a3.477 3.477 0 0 1-.264.306c-.186.19-.468.443-.85.685l.267.422zM12 19.594c1.77 0 3.059-.507 3.9-1.039l-.268-.422c-.765.483-1.961.96-3.632.96v.5zm-3.9-1.039c.841.532 2.13 1.039 3.9 1.039v-.5c-1.67 0-2.867-.478-3.632-.962l-.267.423zm-1.053-1.274a28.985 28.985 0 0 0-.205.143v.001l.002.002a.422.422 0 0 0 .02.029l.061.077a3.8 3.8 0 0 0 .235.263c.208.214.52.493.94.759l.268-.422a4.679 4.679 0 0 1-.85-.685 3.463 3.463 0 0 1-.264-.306c0-.002-.001-.003-.002-.003l-.205.142zm-.304-.55a.746.746 0 0 0 .103.699l.402-.297a.246.246 0 0 1-.034-.231l-.47-.17zm.524-.473a.75.75 0 0 0-.524.474l.47.169a.25.25 0 0 1 .176-.159l-.122-.484zm.803.326a.749.749 0 0 0-.798-.328l.112.488a.249.249 0 0 1 .265.11l.421-.27zm.845.705a4.167 4.167 0 0 1-.668-.516 2.313 2.313 0 0 1-.179-.192l-.006-.008v-.001l-.203.147-.202.146v.001l.002.002.004.005.012.017.046.055c.04.046.098.11.178.187.16.155.403.36.749.58l.267-.423zm3.085.805c-1.48 0-2.462-.411-3.085-.805l-.267.422c.697.442 1.773.883 3.352.883v-.5zm3.085-.805c-.623.394-1.606.805-3.085.805v.5c1.58 0 2.655-.441 3.352-.883l-.267-.422zm1.056-.57l-.203-.146v-.001l-.007.009a2.307 2.307 0 0 1-.178.192 4.168 4.168 0 0 1-.668.516l.267.422c.346-.218.59-.424.749-.579a2.826 2.826 0 0 0 .236-.259l.004-.005.002-.002v-.001l-.202-.146zm.31-.527a.752.752 0 0 0-.537.421l.453.212a.252.252 0 0 1 .181-.142l-.096-.49z"/></svg>