<svg xmlns="http://www.w3.org/2000/svg" width="27" height="21" fill="none"><path fill="#163150" d="M21.21 2.514l-.36.347.188.195.266-.05-.093-.492zm3.126-1.163l.475.156.408-1.243-1.133.654.25.433zM22.227 3.98l-.252-.432-.433.252.254.433.431-.253zm.01.017l-.431.253.165.282.325-.039-.06-.496zM25 3.249l.412.284.983-1.429-1.593.686.198.46zm-2.457 2.483l-.287-.41-.226.159.013.275.5-.024zM1 17.844l.059-.496-.324.92.265-.424zm7.29-1.985l.304.398 1.142-.872-1.437-.026-.009.5zm-4.6-3.33l.09-.492-.83-.153.264.801.475-.157zm2.224-.085l.13.483-.034-.973-.096.49zm-3.95-4.763l.24-.44-.74-.4v.84h.5zm2.23.6l-.015.5 1.79.06-1.501-.978-.273.419zM2.67 1.878l.384-.32-.451-.54-.362.603.43.257zm10.15 5.01l-.024.5.665.033-.155-.648-.486.116zm7.93-3.952l.36-.346-.001-.002-.36.348zM13.433 6.75l-.487.112v.003l.487-.115zm.188.793l-.025.5.664.032-.153-.647-.486.115zm-.834-.04l.024-.5-.024.5zm-9.945-4.5l.36-.346-.576-.6-.26.79.476.156zM4.545 7.77l-.272.419.272-.42zm1.836 1.194l-.016.5 1.787.056-1.499-.975-.272.42zm-2.208-.07l.015-.5-.015.5zm-1.476-.242l.145-.479-.825-.248.193.84.487-.113zm3.34 3.189l.097-.49-.096.49zm2.616.512l.129.483-.033-.974-.096.49zm-2.573.685l.128.483-.128-.483zm-1.374.19l-.008-.5-.883.013.466.75.425-.263zM8.3 15.244l-.01.5h.001l.01-.5zm1.776.031l.304.398 1.143-.872-1.438-.026-.009.5zm-1.398 1.067l-.304-.397.304.397zM3.553 18.44l-.061-.496-.122.962.183-.466zM21.911 5.758l.5-.018v-.004l-.5.022zm-.015-.331l-.288-.409-.223.158.012.273.5-.022zm.277-.195l-.288-.409.288.41zm.932-.75l.338.369 1.33-1.22-1.768.361.1.49zm-.792.125l-.057-.496h-.002l.06.496zm-.439.053l-.443.232.16.306.343-.041-.06-.497zm-.2-.382l-.443.232.443-.232zm-.269-.514l-.265-.424-.392.246.214.41.443-.232zm.499-.313l-.253-.431-.006.004-.007.004.266.423zm.92-.733l.366.341-.53-.813.164.472zm-1.493.4l-.093-.492h-.003l.096.491zm-.343.067l-.36.345.188.198.269-.053-.097-.49zM17.616.5c-2.982 0-5.424 2.36-5.424 5.297h1c0-2.36 1.969-4.297 4.424-4.297v-1zm3.955 1.667A5.479 5.479 0 0 0 17.616.5v1c1.277 0 2.429.524 3.234 1.36l.72-.693zm2.515-1.25a9.524 9.524 0 0 1-2.97 1.106l.188.982a10.524 10.524 0 0 0 3.282-1.221l-.5-.866zM22.48 4.413a5.18 5.18 0 0 0 2.332-2.905l-.95-.312a4.18 4.18 0 0 1-1.886 2.353l.504.864zm.19-.668l-.01-.017-.863.506.01.017.862-.506zm2.133-.954a9.323 9.323 0 0 1-2.624.71l.118.993a10.321 10.321 0 0 0 2.902-.784l-.396-.919zm-1.973 3.35a10.376 10.376 0 0 0 2.582-2.608l-.824-.567a9.374 9.374 0 0 1-2.332 2.357l.574.818zm.228.211c0-.215-.006-.43-.016-.644l-.999.048c.01.199.015.397.015.596h1zM8.547 20.5c9.379 0 14.51-7.58 14.51-14.148h-1c0 6.112-4.775 13.148-13.51 13.148v1zM.735 18.268A14.688 14.688 0 0 0 8.547 20.5v-1c-2.684 0-5.18-.765-7.282-2.08l-.53.848zm1.44-.856c-.38 0-.752-.021-1.116-.064l-.118.993c.406.048.818.07 1.233.07v-1zm5.812-1.95a9.553 9.553 0 0 1-5.813 1.95v1c2.42 0 4.65-.805 6.42-2.155l-.607-.795zm-4.773-2.777c.696 2.106 2.7 3.632 5.067 3.674l.018-1c-1.944-.034-3.573-1.286-4.135-2.988l-.95.314zm1.403-.573c-.288 0-.566-.026-.838-.075l-.18.983c.33.06.669.092 1.018.092v-1zm1.169-.15a4.58 4.58 0 0 1-1.17.15v1c.493 0 .97-.063 1.427-.185l-.257-.966zm-4.321-4.22c0 2.576 1.88 4.71 4.354 5.193l.191-.982c-2.03-.396-3.545-2.14-3.545-4.212h-1zm0-.061v.06h1v-.06h-1zm2.746.101a4.5 4.5 0 0 1-2.008-.54l-.477.878a5.5 5.5 0 0 0 2.453.662l.032-1zM1.504 4.29c0 1.843.963 3.464 2.418 4.41l.546-.837c-1.19-.774-1.964-2.09-1.964-3.573h-1zm.737-2.67a5.18 5.18 0 0 0-.737 2.67h1c0-.787.216-1.522.595-2.156l-.858-.514zm10.603 4.77c-3.95-.193-7.45-2.034-9.79-4.833l-.767.642C4.802 5.206 8.56 7.18 12.796 7.388l.048-1zm-.652-.592c0 .414.049.819.142 1.207l.972-.232a4.187 4.187 0 0 1-.114-.975h-1zm5.424-3.682c1.05 0 2.06.427 2.773 1.167l.72-.695a4.866 4.866 0 0 0-3.493-1.472v1zm-3.793 3.682c0-2.019 1.69-3.682 3.793-3.682v-1c-2.63 0-4.793 2.086-4.793 4.682h1zm.098.842a3.76 3.76 0 0 1-.098-.842h-1c0 .362.045.722.124 1.066l.974-.224zm.187.79l-.187-.793-.973.23.187.793.973-.23zm-1.345.574l.834.04.05-.998-.835-.041-.049.999zM2.483 3.35a15.307 15.307 0 0 0 10.28 4.652l.049-1a14.306 14.306 0 0 1-9.609-4.345l-.72.693zm.653.939c0-.385.062-.765.182-1.13l-.95-.312a4.618 4.618 0 0 0-.232 1.442h1zm1.682 3.06a3.648 3.648 0 0 1-1.682-3.06h-1c0 1.574.801 3.03 2.137 3.899l.545-.838zm1.835 1.195L4.818 7.351l-.545.838 1.835 1.194.545-.838zm-2.496.85l2.208.07.032-1-2.209-.07-.031 1zM2.553 9.13a6.185 6.185 0 0 0 1.605.263l.03-1a5.184 5.184 0 0 1-1.346-.22l-.289.957zm3.58 2.22c-1.49-.292-2.628-1.421-2.948-2.811l-.975.224c.41 1.778 1.857 3.2 3.732 3.568l.192-.982zm2.616.511l-2.615-.512-.192.982 2.615.512.192-.982zm-2.54 1.659l2.573-.685-.258-.966-2.573.685.257.966zm-1.496.207a6.22 6.22 0 0 0 1.495-.207l-.256-.966a5.217 5.217 0 0 1-1.254.173l.015 1zm3.597 1.016a3.82 3.82 0 0 1-3.18-1.78l-.85.527c.841 1.355 2.345 2.22 4.01 2.253l.02-1zm1.775.031l-1.776-.03-.018.999 1.777.031.017-1zM8.981 16.74l1.399-1.067-.607-.795-1.399 1.067.607.795zm-5.366 2.197a11.03 11.03 0 0 0 5.366-2.198l-.607-.794a10.029 10.029 0 0 1-4.882 2l.123.991zm4.932-.052c-1.66 0-3.29-.31-4.81-.91l-.367.93c1.638.646 3.392.98 5.177.98v-1zM21.424 6.352c0 6.163-4.811 12.533-12.877 12.533v1c8.68 0 13.877-6.882 13.877-13.533h-1zm-.012-.575c.007.193.012.384.012.575h1c0-.208-.006-.411-.013-.612l-1 .037zm-.015-.328l.015.332.999-.045-.015-.332-1 .045zm.488-.626l-.277.195.576.818.277-.195-.576-.818zm.882-.71a8.532 8.532 0 0 1-.882.71l.575.818c.346-.243.674-.506.983-.79l-.676-.737zm-.396.99c.281-.032.56-.075.834-.13l-.2-.98a9.176 9.176 0 0 1-.75.118l.116.993zm-.437.054l.44-.053-.12-.993-.44.053.12.993zm-.703-.647l.2.382.886-.464-.2-.382-.886.464zm-.269-.515l.27.515.885-.464-.268-.514-.887.463zm.676-.967l-.498.312.531.847.498-.312-.53-.847zm.82-.65a3.571 3.571 0 0 1-.806.642l.504.863a4.532 4.532 0 0 0 1.034-.824l-.732-.682zm-1.034 1.23c.534-.1 1.056-.241 1.564-.417l-.328-.945c-.464.16-.938.289-1.422.38l.186.983zm-.34.067l.344-.067-.193-.981-.343.067.193.981zm-.696-.395l.24.25.722-.691-.24-.25-.722.691z"/></svg>