<svg xmlns="http://www.w3.org/2000/svg" width="24" height="24" fill="none"><path fill="#163150" fill-rule="evenodd" d="M20.56 14.341c-.418.265-.911.298-1.286.087-.476-.27-.737-.898-.737-1.774v-2.618c0-1.264-.5-2.164-1.336-2.407-1.417-.413-2.482 1.32-2.882 1.972l-2.499 4.05v-4.95c-.028-1.14-.398-1.821-1.1-2.027-.465-.135-1.16-.081-1.836.953l-5.597 8.987A9.874 9.874 0 0 1 2.149 12c0-5.414 4.339-9.818 9.671-9.818 5.333 0 9.671 4.404 9.671 9.818 0 .01.003.018.003.026 0 .01-.002.018-.001.027.05 1.049-.29 1.883-.933 2.289zm3.08-2.34v-.055C23.61 5.353 18.32 0 11.82 0 5.303 0 0 5.383 0 12c0 6.616 5.303 12 11.82 12 2.99 0 5.845-1.137 8.036-3.2.436-.41.461-1.1.058-1.541a1.064 1.064 0 0 0-1.519-.059 9.56 9.56 0 0 1-6.575 2.618c-2.855 0-5.424-1.264-7.196-3.268l5.047-8.105v3.737c0 1.794.696 2.374 1.28 2.544.584.17 1.477.054 2.414-1.468l2.777-4.5a7.44 7.44 0 0 1 .245-.38v2.276c0 1.678.672 3.02 1.844 3.68 1.056.596 2.383.543 3.465-.14 1.311-.828 2.018-2.354 1.944-4.193z" clip-rule="evenodd"/></svg>