<svg xmlns="http://www.w3.org/2000/svg" width="163" height="123" fill="none"><path stroke="#E1E5E9" stroke-linecap="round" stroke-linejoin="round" stroke-width="3" d="M44 2h7M2 102h159H2zm82 19h68-68zm-34 0h26-26zM10 56V43v13zm126.43-32.67A18.003 18.003 0 0 1 151 41v12l-14.57-29.67zM60 2h28.09c5.73 0 9.89 2.64 13.12 6L60 2z"/><path fill="#F2F2F2" d="M145 41v60c0 3.183-1.264 6.235-3.515 8.485A11.996 11.996 0 0 1 133 113H28a11.998 11.998 0 0 1-12-12V20A12 12 0 0 1 28 8h60.09c12.91 0 14.79 21 25.38 21H133a11.998 11.998 0 0 1 12 12z"/><path fill="#163050" d="M136.43 112.5a11.752 11.752 0 0 1-3.43.5H28a11.998 11.998 0 0 1-12-12V20c0-6 4.42-12 13.07-12a12 12 0 0 0-8.57 11.5v81a11.998 11.998 0 0 0 12 12h103.93z" opacity=".1"/><path fill="#fff" d="M145 41v60a12.007 12.007 0 0 1-3.52 8.5c.348-1.134.523-2.314.52-3.5V48c0-6.63-5.37-16-12-16h-19.53C99.88 32 98 11 85.09 11H27.5c-8 0-11 4.5-11 5.5A12 12 0 0 1 27.98 8h60.11c12.91 0 14.79 21 25.38 21H133a11.998 11.998 0 0 1 12 12z"/><path stroke="#163050" stroke-linecap="round" stroke-linejoin="round" stroke-width="3" d="M145 41v60c0 3.183-1.264 6.235-3.515 8.485A11.996 11.996 0 0 1 133 113H28a11.998 11.998 0 0 1-12-12V20A12 12 0 0 1 28 8h60.09c12.91 0 14.79 21 25.38 21H133a11.998 11.998 0 0 1 12 12z"/><path fill="#163050" d="M64.43 22.5l-5.93 23c-.5 1.25-5.22 5.38-6.18 5.75-3.17 1.22-7.68-1.88-5.74-6l9.8-26.41.06-.12c1-2.18 7.06-5.23 7.06-5.23s2.33 5.87.93 9.01zM43.88 39.16c4.11 4.12-2.11 10.36-6.24 6.23l-8.82-8.82a4.392 4.392 0 0 1 0-6.23l8.81-8.84c1.28-1.28 6.55-4.37 7.87-4 2.91.77 1.21 7.4-1.64 10.25l-5.69 5.75 5.71 5.66zm38.33-2.59l-8.83 8.82c-4.15 4.15-10.35-2.16-6.23-6.23l5.71-5.66-5.7-5.71a4.19 4.19 0 0 1-.17-6c1-1.07 5.05-4.43 6.51-4.25.88.11-.91 3.21-.1 4l8.81 8.82a4.4 4.4 0 0 1 0 6.21z" opacity=".1"/><path fill="#FFD166" stroke="#163050" stroke-linecap="round" stroke-linejoin="round" stroke-width="3" d="M54.58 47a2.91 2.91 0 0 1-2.62-4.17l9.83-26.46a2.93 2.93 0 0 1 2.63-1.65c.433.001.86.1 1.25.29a2.91 2.91 0 0 1 1.37 3.88l-9.83 26.46A2.93 2.93 0 0 1 54.58 47zm19.69-4.82a2.91 2.91 0 0 1-2.06-5l6.77-6.68-6.76-6.76a2.91 2.91 0 0 1 4.12-4.11l8.81 8.82a2.91 2.91 0 0 1 0 4.11l-8.83 8.82a2.89 2.89 0 0 1-2.05.81v-.01zm-29.51 0a2.89 2.89 0 0 1-2.06-.85l-8.82-8.83a2.91 2.91 0 0 1 0-4.11l8.81-8.82a2.91 2.91 0 1 1 4.11 4.11l-6.71 6.82 6.77 6.76a2.91 2.91 0 0 1-2.06 5l-.04-.08z"/><path fill="#163050" d="M135 76.75v30.21a14.564 14.564 0 0 1-1.31 6H21.63c8.92 0 9.15-7.23 9.15-16.15v-20.1a14.5 14.5 0 0 1 14.5-14.5h75.21A14.499 14.499 0 0 1 135 76.75z" opacity=".1"/><path fill="#1EB8E7" d="M28.5 113h.89c.133.011.267.011.4 0l.69-.08.56-.1.28-.06.25-.06h.11c.25-.06.48-.12.71-.2l.21-.07c.29-.09.58-.19.86-.3h.1c.27-.11.54-.22.8-.36l.1-.06c.132-.055.26-.122.38-.2.092-.039.182-.082.27-.13a13.608 13.608 0 0 0 2.91-2.24l.37-.39c.43-.469.825-.971 1.18-1.5.16-.23.31-.47.45-.71.17-.28.31-.56.46-.84.146-.286.276-.58.39-.88.151-.352.282-.712.39-1.08.08-.27.16-.54.22-.82.06-.28.13-.59.18-.9a.633.633 0 0 0 0-.2c0-.3.09-.6.11-.9.02-.3 0-.74 0-1.12V67.22a13.41 13.41 0 0 1 1.75-6.64l.08-.12c.082-.151.172-.298.27-.44l.1-.17a1.17 1.17 0 0 1 .09-.12.728.728 0 0 1 .13-.19c.126-.194.263-.381.41-.56.11-.15.23-.3.37-.46l.08-.09c.18-.21.37-.41.56-.6l.55-.54.08-.07c.21-.19.44-.38.67-.56l.22-.18c.16-.11.3-.22.46-.32h.07l.17-.11c.16-.11.32-.21.49-.31.17-.1.57-.32.86-.47.29-.15.39-.19.59-.28.325-.15.66-.28 1-.39.19-.073.383-.137.58-.19a11.65 11.65 0 0 1 1.75-.38l.35-.06.59-.06h77.36a13.4 13.4 0 0 1 13.4 13.4v33.41a13.022 13.022 0 0 1-.94 3.91 13.37 13.37 0 0 1-12.42 8.38"/><path fill="#fff" d="M141.09 85.5V67.91c0-5.62-5.68-10.18-11.3-10.18h-78.4c-2.41 0-5.8 1.75-7.75 2.86a13.41 13.41 0 0 1 11.66-6.77h76.3a13.4 13.4 0 0 1 13.4 13.4V99.6c-3.25-3.97-3.91-8.95-3.91-14.1z" opacity=".3"/><path fill="#0C9FE1" d="M52.51 54.38c-3.35 1.12-5.57 4.55-5.57 14.61v35.64h-6c.514-1.247.832-2.566.94-3.91v-33.5c.02-9.03 3.93-11.72 10.63-12.84z"/><path fill="#0C9FE1" d="M131.6 113a13.367 13.367 0 0 0 12.42-8.37H40.92a13.458 13.458 0 0 1-12.41 8.35l103.09.02z"/><path stroke="#163050" stroke-miterlimit="10" stroke-width="3" d="M28.5 113h.89c.133.011.267.011.4 0l.69-.08.56-.1.28-.06.25-.06h.11c.25-.06.48-.12.71-.2l.21-.07c.29-.09.58-.19.86-.3h.1c.27-.11.54-.22.8-.36l.1-.06c.132-.055.26-.122.38-.2.092-.039.182-.082.27-.13a13.608 13.608 0 0 0 2.91-2.24l.37-.39c.432-.465.826-.963 1.18-1.49.16-.23.31-.47.45-.71.17-.28.31-.56.46-.84.146-.286.276-.58.39-.88.151-.352.282-.712.39-1.08.08-.27.16-.54.22-.82.06-.28.13-.59.18-.9a.633.633 0 0 0 0-.2c0-.3.09-.6.11-.9.02-.3 0-.74 0-1.12V67.22a13.41 13.41 0 0 1 1.75-6.64l.08-.12c.082-.151.172-.298.27-.44l.1-.17a1.17 1.17 0 0 1 .09-.12.728.728 0 0 1 .13-.19c.126-.194.263-.381.41-.56.11-.15.23-.3.37-.46l.08-.09c.18-.21.37-.41.56-.6l.55-.54.08-.07c.21-.19.44-.38.67-.56l.22-.18c.16-.11.3-.22.46-.32h.07l.17-.11c.16-.11.32-.21.49-.31.17-.1.57-.32.86-.47.29-.15.39-.19.59-.28.325-.15.66-.28 1-.39.19-.073.383-.137.58-.19a11.65 11.65 0 0 1 1.75-.38l.35-.06.59-.06h77.36a13.4 13.4 0 0 1 13.4 13.4v33.41A13.4 13.4 0 0 1 131.44 113H28.5z"/><path stroke="#163050" stroke-miterlimit="10" stroke-width="3" d="M28.5 113c2.31-.004 4.58-.603 6.59-1.74A12.33 12.33 0 0 1 33.9 113h-5.4z"/><path fill="#DCDEE1" d="M94.57 113h1.35a8.896 8.896 0 0 0 6.896-3.282 8.9 8.9 0 0 0 1.814-7.418l-3.79-12.92c10.75-6.59 6.07-22.79-6-23.27-12.55-.5-18 15.8-7.59 22.94l-4.6 16.12a10.8 10.8 0 0 1-10.39 7.84l22.31-.01z"/><path fill="#F2F2F2" d="M96.27 104.01a5.082 5.082 0 0 1-4.92 7.09l-2.14-.1H78.47a10.703 10.703 0 0 0 4.14-5.84l4.6-16.11a12.19 12.19 0 0 1-5.48-10.35 11 11 0 0 1 6.48-1.69c10.84.43 15 14.94 5.41 20.84l2.65 6.16z"/><path stroke="#163050" stroke-miterlimit="10" stroke-width="3" d="M104.63 102.3a8.893 8.893 0 0 1-4.89 9.84 8.89 8.89 0 0 1-3.82.86h-23.7a10.83 10.83 0 0 0 10.39-7.84l4.6-16.11a12.19 12.19 0 0 1-5.48-10.35A12.501 12.501 0 0 1 94.8 66.11c12.11.48 16.79 16.69 6 23.27l3.83 12.92z"/></svg>