<svg xmlns="http://www.w3.org/2000/svg" width="145" height="138" fill="none"><path stroke="#E1E5E9" stroke-linecap="round" stroke-linejoin="round" stroke-width="3" d="M24 118.88h52m25 0h12"/><path fill="#D8D8D8" stroke="#163050" stroke-linecap="round" stroke-linejoin="round" stroke-width="3" d="M90 111.19v4.69H55v-4.69c4.32 0 3.14-4.69 4.49-13.31h26c1.37 9.23.19 13.31 4.51 13.31z"/><path stroke="#B5BFC7" stroke-linecap="round" stroke-linejoin="round" stroke-width="3" d="M2 45.48v-7.26m141-1.34v12.5M2 26.88V15.12A14.26 14.26 0 0 1 10.7 2" opacity=".4"/><path fill="#C3ADFA" stroke="#163050" stroke-linecap="round" stroke-linejoin="round" stroke-width="3" d="M127.76 6.88H17.24A9.24 9.24 0 0 0 8 16.12v75.52a9.24 9.24 0 0 0 9.24 9.24h110.52a9.24 9.24 0 0 0 9.24-9.24V16.12a9.24 9.24 0 0 0-9.24-9.24z"/><path fill="#D8D8D8" stroke="#163050" stroke-linecap="round" stroke-linejoin="round" stroke-width="3" d="M137 85.88v5.76a9.239 9.239 0 0 1-9.24 9.24H17.24A9.24 9.24 0 0 1 8 91.64v-5.76h129z"/><path fill="#BC97FF" d="M91.16 56.72a14.75 14.75 0 1 0 20.86 20.86l6.48-6.2c9.13-8.8-11.8-29.57-20.86-20.86l-6.48 6.2z"/><path stroke="#163050" stroke-linecap="round" stroke-linejoin="round" stroke-width="3" d="M57 110.88h31"/><path fill="#BC97FF" d="M97 9.88H20v68h77v-68z"/><path fill="#fff" d="M111 2.88H30v68h81v-68z"/><path fill="#163050" d="M110 46.26v24.62H91.5a14.74 14.74 0 0 1 2.69-17.16l6.44-6.15c2.49-2.42 5.92-2.56 9.37-1.31z" opacity=".2"/><path stroke="#163050" stroke-linecap="round" stroke-linejoin="round" stroke-width="3" d="M111 2.88H30v68h81v-68z"/><path stroke="#163050" stroke-linecap="round" stroke-linejoin="round" stroke-width="3" d="M30 13.88h81" opacity=".2"/><path fill="#163050" d="M38.5 6.38h-4v4h4v-4zm5 0h-4v4h4v-4zm5 0h-4v4h4v-4z" opacity=".2"/><path fill="#fff" stroke="#163050" stroke-linecap="round" stroke-linejoin="round" stroke-width="3" d="M102 27.88H54v9h48v-9zm-53 0H39v9h10v-9z" opacity=".2"/><path stroke="#163050" stroke-linecap="round" stroke-linejoin="round" stroke-width="3" d="M48.52 58.88H74.5m-36.5-13h43.5H38zm0 7h14.73H38zm18.24 0h6.31-6.31zm11.22 0h2.81-2.81zm-29.46 6h4.91H38z" opacity=".2"/><path fill="#007FC6" d="M107.86 72.61c6.986 0 12.65-5.663 12.65-12.65 0-6.986-5.664-12.65-12.65-12.65-6.986 0-12.65 5.664-12.65 12.65 0 6.986 5.664 12.65 12.65 12.65z"/><path stroke="#fff" stroke-linecap="round" stroke-linejoin="round" stroke-width="3" d="M99.99 58.7l3.66-3.66 4.21 4.22 4.22-4.22 3.78 3.78m-12.08 4.54l4.08 3.69 4.18-3.69"/><path fill="#163050" d="M107.86 47.31a12.65 12.65 0 1 1 0 25.299 12.65 12.65 0 0 1 0-25.299zm0-3a15.65 15.65 0 1 0 15.64 15.65 15.668 15.668 0 0 0-15.65-15.65h.01z"/><path fill="#163050" d="M101.25 133.04c0 2.21-5.71 4.15-12.75 4.34-7.04.19-12.75-1.45-12.75-3.66s5.75-4.15 12.75-4.34c7-.19 12.75 1.45 12.75 3.66zm23.25-1.66c7.18 0 13-1.791 13-4s-5.82-4-13-4-13 1.791-13 4 5.82 4 13 4z" opacity=".2"/><path fill="#FFD166" stroke="#163150" stroke-linecap="round" stroke-linejoin="round" stroke-width="3" d="M140.78 109.38a11.32 11.32 0 0 0-21.22 6.93l-8.56 4.51v5h3v1.91l9.07-4.79a11.328 11.328 0 0 0 14.529.63 11.327 11.327 0 0 0 3.181-14.19zM102 120l-8.18 4.31c-11.32 6.81-19.32-7.23-7.19-13.65l2.1-1.11 3.51 6.68 11.34-23-20.48 10.75c-20.24 10.68-6.42 37.94 14.25 27l7.65-4v-4.1h-3V120z"/><path fill="#fff" d="M131.01 118.88a3.993 3.993 0 0 1-1.45-.27 3.85 3.85 0 0 1-2.1-1.84 3.807 3.807 0 0 1-.34-2.76 3.922 3.922 0 0 1 .712-1.526c.346-.45.785-.82 1.288-1.084a3.913 3.913 0 0 1 3.013-.298 3.916 3.916 0 0 1 2.327 1.938 4.009 4.009 0 0 1 .29 3.08 4.003 4.003 0 0 1-3.76 2.77l.02-.01z"/><path fill="#163150" d="M131 112.38a2.428 2.428 0 0 1 2.15 1.31 2.515 2.515 0 0 1 .19 1.93 2.396 2.396 0 0 1-1.21 1.43 2.313 2.313 0 0 1-1.11.28 2.524 2.524 0 0 1-.92-.18 2.388 2.388 0 0 1-1.31-1.14 2.332 2.332 0 0 1-.21-1.68v-.09a2.354 2.354 0 0 1 1.24-1.57c.357-.191.755-.29 1.16-.29h.02zm-.02-3a5.458 5.458 0 0 0-2.57.64 5.449 5.449 0 0 0 .58 9.94 5.5 5.5 0 0 0 2 .38 5.335 5.335 0 0 0 2.54-.64 5.492 5.492 0 0 0-2.53-10.32h-.02z"/><path stroke="#E1E5E9" stroke-linecap="round" stroke-linejoin="round" stroke-width="3" d="M41 125.88h21"/></svg>