<svg xmlns="http://www.w3.org/2000/svg" width="142" height="141" fill="none"><path stroke="#B5BFC7" stroke-linecap="round" stroke-linejoin="round" stroke-width="3" d="M25 134h25m-47-7h55H3zm124 0h-7 7zM107 2h14.15A18.85 18.85 0 0 1 140 20.85V42M88 2h10" opacity=".4"/><path fill="#F2F2F2" stroke="#163050" stroke-linecap="round" stroke-linejoin="round" stroke-width="3" d="M133 106.15v-85.3C133 14.305 127.695 9 121.15 9H13.85C7.305 9 2 14.305 2 20.85v85.3C2 112.695 7.305 118 13.85 118h107.3c6.545 0 11.85-5.305 11.85-11.85z"/><path fill="#163050" d="M130.73 113.06a11.841 11.841 0 0 1-9.63 4.94H13.85a11.847 11.847 0 0 1-8.382-3.468A11.827 11.827 0 0 1 2 106.15v-85.3C2 24.5 6 28.5 6 35.5v68.65c0 6.55 4.3 9.85 10.85 9.85h109.3a11.707 11.707 0 0 0 4.58-.94z" opacity=".2"/><path fill="#FFD166" d="M123 23.83v79.34a5.827 5.827 0 0 1-3.599 5.386 5.827 5.827 0 0 1-2.231.444H17.83a5.828 5.828 0 0 1-5.83-5.83V89.5H8.5v-52H12V23.83A5.83 5.83 0 0 1 17.83 18h99.34a5.827 5.827 0 0 1 5.386 3.599A5.83 5.83 0 0 1 123 23.83z"/><path fill="#fff" d="M123 103.17V23.83a5.83 5.83 0 0 0-5.83-5.83H17.82c.14.83 4.77 4 10.54 4h86.69a3.94 3.94 0 0 1 3.94 3.94v63.7c0 4.802 1.389 9.5 4 13.53h.01z" opacity=".8"/><path fill="#FFAE25" d="M16.83 36.5h-4V23a25 25 0 0 1 4 13.5zM118 108.17H18.65a5.816 5.816 0 0 1-4.118-1.702 5.808 5.808 0 0 1-1.702-4.118V88.5h4v11.73a3.93 3.93 0 0 0 3.9 3.94h86.69c5.81 0 10.44 3.17 10.58 4z"/><path fill="#FFAE25" d="M20.5 34.03a4.525 4.525 0 0 0 4.52-4.53 4.525 4.525 0 0 0-4.52-4.53 4.525 4.525 0 0 0-4.52 4.53 4.525 4.525 0 0 0 4.52 4.53z"/><path fill="#fff" stroke="#163050" stroke-linecap="round" stroke-linejoin="round" stroke-width="3" d="M22.5 30a2.5 2.5 0 1 0 0-5 2.5 2.5 0 0 0 0 5z"/><path fill="#FFAE25" d="M20.5 105.03a4.525 4.525 0 0 0 4.52-4.53 4.525 4.525 0 0 0-4.52-4.53 4.525 4.525 0 0 0-4.52 4.53 4.525 4.525 0 0 0 4.52 4.53z"/><path fill="#fff" stroke="#163050" stroke-linecap="round" stroke-linejoin="round" stroke-width="3" d="M22.5 101a2.5 2.5 0 1 0 0-5 2.5 2.5 0 0 0 0 5z"/><path fill="#FFAE25" d="M110.5 34.03a4.525 4.525 0 0 0 4.52-4.53 4.525 4.525 0 0 0-4.52-4.53 4.525 4.525 0 0 0-4.52 4.53 4.525 4.525 0 0 0 4.52 4.53z"/><path fill="#fff" stroke="#163050" stroke-linecap="round" stroke-linejoin="round" stroke-width="3" d="M112.5 30a2.5 2.5 0 1 0 0-5 2.5 2.5 0 0 0 0 5z"/><path fill="#FFAE25" d="M110.5 105.03a4.525 4.525 0 0 0 4.52-4.53 4.525 4.525 0 0 0-4.52-4.53 4.525 4.525 0 0 0-4.52 4.53 4.525 4.525 0 0 0 4.52 4.53z"/><path fill="#fff" stroke="#163050" stroke-linecap="round" stroke-linejoin="round" stroke-width="3" d="M112.5 101a2.5 2.5 0 1 0 0-5 2.5 2.5 0 0 0 0 5z"/><path fill="#FFAE25" d="M109.1 91.38a5.11 5.11 0 0 1-2.46-.64 4.997 4.997 0 0 1-2.65-4.47V51.96c0-4.35 2.19-5.34 5.86-7.68l5.55-3.54a1.5 1.5 0 1 1 1.61 2.53l-5.55 3.54c-2.8 1.79-4.47 1.83-4.47 5.15v34.31a2.1 2.1 0 0 0 3.23 1.77l5.18-3.3a1.5 1.5 0 1 1 1.61 2.53l-5.18 3.3a5.079 5.079 0 0 1-2.73.81z"/><path stroke="#163050" stroke-linecap="round" stroke-linejoin="round" stroke-width="3" d="M116 42a5.002 5.002 0 0 0-5 5v34a5.002 5.002 0 0 0 5 5"/><path fill="#FFAE25" d="M37.51 44.2a34.38 34.38 0 0 0 48.61 48.61l3.33-2.67A34.383 34.383 0 1 0 40.84 41.5l-3.33 2.7z"/><path fill="#fff" stroke="#163050" stroke-linecap="round" stroke-linejoin="round" stroke-width="3" d="M66.82 96c18.126 0 32.82-14.694 32.82-32.82 0-18.126-14.694-32.82-32.82-32.82C48.694 30.36 34 45.054 34 63.18 34 81.306 48.694 96 66.82 96z"/><path stroke="#163050" stroke-linecap="round" stroke-linejoin="round" stroke-width="3" d="M67 88.66v-4.32m-14.36-6.48l-3.3 3.3 3.3-3.3zm32.15-32.15l-3.06 3.06 3.06-3.06zm-32.15 3.43l-3.3-3.3 3.3 3.3zm32.15 32.15l-3.06-3.06 3.06 3.06zM92.66 64h-4.32 4.32zm-46 0h-4.32 4.32zM67 42.66v-4.32 4.32z"/><path fill="#163050" d="M51.06 55.5a16.263 16.263 0 1 0 23 23l4.88-4.57c10.06-9.69-13-32.56-23-23l-4.88 4.57z" opacity=".2"/><path fill="#163050" stroke="#163050" stroke-linecap="round" stroke-linejoin="round" stroke-width="3" d="M82.55 61.46l-3.51-8.35 6.39 2.27-2.88 6.08z"/><path fill="#007FC6" d="M66.8 77.68c8.058 0 14.59-6.532 14.59-14.59S74.858 48.5 66.8 48.5s-14.59 6.532-14.59 14.59 6.532 14.59 14.59 14.59z"/><path stroke="#fff" stroke-linecap="round" stroke-linejoin="round" stroke-width="3" d="M58.62 61.78l3.8-3.8 4.38 4.38 4.38-4.38 3.92 3.92m-12.54 4.71l4.24 3.84 4.33-3.84"/><path fill="#163050" d="M66.94 49.5a13.5 13.5 0 1 1 0 27 13.5 13.5 0 0 1 0-27zm0-3A16.5 16.5 0 1 0 83.44 63a16.52 16.52 0 0 0-16.5-16.5z"/><path fill="#fff" d="M33.1 124.11H20.89l-1.54-5.97h15.29l-1.54 5.97z"/><path fill="#163050" d="M23.93 124.11h-3.04l-1.54-5.97h11.81l-7.23 5.97z" opacity=".3"/><path stroke="#163050" stroke-linecap="round" stroke-linejoin="round" stroke-width="3" d="M33.1 124.11H20.89l-1.54-5.97h15.29l-1.54 5.97z"/><path fill="#fff" d="M117.2 124.11H105l-1.55-5.97h15.29l-1.54 5.97z"/><path fill="#163050" d="M108.03 124.11H105l-1.55-5.97h11.81l-7.23 5.97z" opacity=".3"/><path stroke="#163050" stroke-linecap="round" stroke-linejoin="round" stroke-width="3" d="M117.2 124.11H105l-1.55-5.97h15.29l-1.54 5.97z"/><path fill="#FFAE25" d="M18.5 71a1.5 1.5 0 0 1-1.5 1.5h-4.5v17h-5v-54h5v16H17a1.5 1.5 0 1 1 0 3h-4.5v15H17a1.5 1.5 0 0 1 1.5 1.5z"/><path stroke="#163050" stroke-linecap="round" stroke-linejoin="round" stroke-width="3" d="M12 34.33v-10.5A5.83 5.83 0 0 1 17.83 18h99.35a5.829 5.829 0 0 1 5.83 5.83v79.35a5.826 5.826 0 0 1-1.708 4.122 5.826 5.826 0 0 1-4.122 1.708H17.82a5.828 5.828 0 0 1-5.83-5.83V89.67L12 34.33zm4.99.67h-9v54h9V35z"/><path fill="#E3EDFF" d="M127.5 131.5h-35v7h35v-7zm-5-27h-35v7h35v-7zm3-7h-35v7h35v-7z"/><path fill="#FFD166" d="M131.5 125.5h-35v7h35v-7zm-9-7h-35v7h35v-7zm6-8h-35v7h35v-7zm1-21h-35v7h35v-7z"/><path fill="#003C77" d="M110.5 131.5h-18v7h18v-7zm-5-27h-18v7h18v-7zm3-7h-18v7h18v-7z" opacity=".2"/><path fill="#FA0" d="M114.5 125.5h-18v7h18v-7zm-9-7h-18v7h18v-7zm6-8h-18v7h18v-7z"/><path fill="#FFAE25" d="M112.5 89.5h-18v7h18v-7z"/><path stroke="#163150" stroke-linecap="round" stroke-linejoin="round" stroke-width="3" d="M127 139H92v-7h35v7zm-5-35H87v7h35v-7zm3-7H90v7h35v-7zm6 28H96v7h35v-7zm-9-7H87v7h35v-7zm6-7H93v7h35v-7zm1-21H94v7h35v-7z"/><path fill="#E3EDFF" stroke="#163150" stroke-linecap="round" stroke-linejoin="round" stroke-width="3" d="M99.86 122.01a17.001 17.001 0 0 1-17.34 16.61 17.256 17.256 0 0 1-2.73-.29 17.001 17.001 0 0 1-9.5-27.903 17 17 0 0 1 10.22-5.587 17.32 17.32 0 0 1 2.74-.17 16.997 16.997 0 0 1 16.61 17.34z"/><path fill="#003C77" d="M99.86 122.01a17 17 0 0 1-17.34 16.61 17.256 17.256 0 0 1-2.73-.29 21.604 21.604 0 0 1-7.593-16.916 21.614 21.614 0 0 1 8.313-16.574 17.32 17.32 0 0 1 2.74-.17 16.997 16.997 0 0 1 16.61 17.34z" opacity=".2"/><path fill="url(#paint0_radial)" stroke="#163150" stroke-linecap="round" stroke-linejoin="round" stroke-width="3" d="M111.48 122.246c.206-9.585-7.398-17.523-16.983-17.728-9.586-.206-17.523 7.397-17.729 16.983-.206 9.585 7.398 17.523 16.983 17.729 9.586.205 17.523-7.398 17.729-16.984z"/><path fill="#FFC835" stroke="#FFAE25" stroke-linecap="round" stroke-linejoin="round" stroke-width="3" d="M83.73 119.7a10.929 10.929 0 0 1 18.79-5.14l-7.93 7 10.72 1a10.92 10.92 0 1 1-21.58-2.86z"/><defs><radialGradient id="paint0_radial" cx="0" cy="0" r="1" gradientTransform="rotate(-88.77 101.858 13.23) scale(14.1703)" gradientUnits="userSpaceOnUse"><stop offset=".06" stop-color="#FFEA80"/><stop offset=".11" stop-color="#FFE77D"/><stop offset=".47" stop-color="#FFD76C"/><stop offset=".73" stop-color="#FFD166"/></radialGradient></defs></svg>