<svg xmlns="http://www.w3.org/2000/svg" width="16" height="16"><g fill="#007A99"><path d="M4.666 7.203l2.986 2.972V1.383c0-.382.312-.691.696-.691.384 0 .695.31.695.691v8.792l2.987-2.972a.697.697 0 0 1 .984 0 .69.69 0 0 1 0 .979L8.84 12.335a.695.695 0 0 1-.758.15.695.695 0 0 1-.226-.15L3.682 8.182a.69.69 0 0 1 0-.98.697.697 0 0 1 .984 0z"/><path d="M2.073 9.62v4.93h12.475V9.724a.693.693 0 1 1 1.387 0v4.826c0 .761-.623 1.38-1.387 1.38H2.073a1.384 1.384 0 0 1-1.386-1.38V9.62c.069-.39.292-.585.67-.585.379 0 .617.195.716.585z"/></g></svg>