<svg xmlns="http://www.w3.org/2000/svg" width="129" height="170"><g fill="none" fill-rule="evenodd" transform="translate(3 4)"><path fill="#1EB8E7" d="M.987 46.365H99.67v34.914c0 22.636-18.291 40.986-40.855 40.986H41.842c-22.564 0-40.855-18.35-40.855-40.986V46.365z"/><path fill="#FFF" d="M14.145 56.265v28.05c0 20.96 16.936 37.95 37.829 37.95h-9.869c-22.723-.09-41.1-18.586-41.118-41.382V46.365l13.158 9.9z" opacity=".25"/><path stroke="#163150" stroke-linecap="round" stroke-linejoin="round" stroke-width="6.6" d="M.987 46.365H99.67v34.914c0 22.636-18.291 40.986-40.855 40.986H41.842c-22.564 0-40.855-18.35-40.855-40.986V46.365z"/><path fill="#0C9FE1" d="M99.671 44.715c-.036 6.364-5.17 11.514-11.513 11.55H12.5c-6.359 0-11.513-5.171-11.513-11.55.036-6.364 5.17-11.514 11.513-11.55h75.658c6.343.036 11.477 5.186 11.513 11.55z"/><path fill="#007FC6" fill-rule="nonzero" d="M24.013 49.665V33h32.895L30.592 49.5l-6.579.165zm64.145-16.5H73.355v16.5h6.58l17.861-11.22a11.373 11.373 0 0 0-9.638-5.28z"/><rect width="98.684" height="23.1" x=".987" y="33.165" stroke="#163150" stroke-linecap="round" stroke-linejoin="round" stroke-width="6.6" rx="11.55"/><path fill="#0C9FE1" fill-rule="nonzero" d="M36.974 82.665H27.5a3.525 3.525 0 0 1-3.487-3.465v-9.537a3.525 3.525 0 0 1 3.487-3.498h9.474a3.525 3.525 0 0 1 3.487 3.498V79.2a3.525 3.525 0 0 1-3.487 3.465zM60.197 79.2v-9.537a3.525 3.525 0 0 0-3.486-3.498h-9.474a3.525 3.525 0 0 0-3.487 3.498V79.2a3.525 3.525 0 0 0 3.487 3.498h9.474a3.525 3.525 0 0 0 3.486-3.498zm19.737 0v-9.537a3.525 3.525 0 0 0-3.487-3.498h-9.473a3.525 3.525 0 0 0-3.487 3.498V79.2a3.525 3.525 0 0 0 3.487 3.498h9.473a3.525 3.525 0 0 0 3.487-3.498zM40.461 99v-9.537a3.525 3.525 0 0 0-3.487-3.498H27.5a3.525 3.525 0 0 0-3.487 3.498V99a3.525 3.525 0 0 0 3.487 3.498h9.474A3.525 3.525 0 0 0 40.46 99zm19.736 0v-9.537a3.525 3.525 0 0 0-3.486-3.498h-9.474a3.525 3.525 0 0 0-3.487 3.498V99a3.525 3.525 0 0 0 3.487 3.498h9.474A3.525 3.525 0 0 0 60.197 99zm19.737 0v-9.537a3.525 3.525 0 0 0-3.487-3.498h-9.473a3.525 3.525 0 0 0-3.487 3.498V99a3.525 3.525 0 0 0 3.487 3.498h9.473A3.525 3.525 0 0 0 79.934 99z"/><path fill="#E3EDFF" d="M17.434 44.121V33.165c0-18.225 14.728-33 32.895-33s32.895 14.775 32.895 33v10.956c0 1.254-3.685 2.244-8.224 2.244-4.54 0-8.224-.99-8.224-2.244V33.165c0-9.113-7.363-16.5-16.447-16.5s-16.447 7.387-16.447 16.5v10.956c0 1.254-3.685 2.244-8.224 2.244-4.54 0-8.224-.99-8.224-2.244z"/><path stroke="#163150" stroke-linecap="round" stroke-linejoin="round" stroke-width="6.6" d="M17.434 44.121V33.165c0-18.225 14.728-33 32.895-33s32.895 14.775 32.895 33v10.956c0 1.254-3.685 2.244-8.224 2.244-4.54 0-8.224-.99-8.224-2.244V33.165c0-9.113-7.363-16.5-16.447-16.5s-16.447 7.387-16.447 16.5v10.956c0 1.254-3.685 2.244-8.224 2.244-4.54 0-8.224-.99-8.224-2.244z"/><rect width="98.684" height="33" x="24.013" y="99.165" fill="#FFAE25" stroke="#163150" stroke-linecap="round" stroke-linejoin="round" stroke-width="6.6" rx="11.814"/><rect width="98.684" height="33" x="24.013" y="112.365" fill="#FFD166" stroke="#163150" stroke-linecap="round" stroke-linejoin="round" stroke-width="6.6" rx="11.814"/><path fill="#FFF" fill-rule="nonzero" stroke="#163150" stroke-linecap="round" stroke-linejoin="round" stroke-width="6.6" d="M42.401 124.212l9.277 9.306m0-9.306l-9.277 9.306m26.316-9.306l9.276 9.306m0-9.306l-9.276 9.306m24.375-11.253l13.158 13.2m0-13.2l-13.158 13.2"/><path stroke="#B5BFC7" stroke-linecap="round" stroke-linejoin="round" stroke-width="6.6" d="M33.882 161.865c-14.534 0-26.316-11.82-26.316-26.4m42.763 26.4h16.447m49.342-118.8a26.425 26.425 0 0 0-11.184-21.615m11.184 51.315v13.2m-6.579-6.6h13.158" opacity=".4"/></g></svg>