<svg xmlns="http://www.w3.org/2000/svg" width="144" height="171"><g fill="none" fill-rule="evenodd" transform="translate(-1 4)"><path fill="#1EB8E7" d="M111.1 51.517V90.31c0 25.151-20.389 45.54-45.54 45.54H42.973C19.256 133.952 1.005 114.103 1.1 90.31V51.517h110z"/><path fill="#007FC6" d="M114.767 70.033v16.61c0 25.151-20.39 45.54-45.54 45.54H46.64a47.19 47.19 0 0 1-5.317-22 47.667 47.667 0 0 1 73.334-40.15h.11z" opacity=".7"/><path fill="#FFF" d="M19.433 62.517v31.166c0 23.288 18.879 42.167 42.167 42.167h-11c-25.328-.1-45.813-20.651-45.833-45.98V51.517l14.666 11z" opacity=".25"/><path stroke="#163150" stroke-linecap="round" stroke-linejoin="round" stroke-width="7.348" d="M4.767 51.517h110V90.31c0 25.151-20.39 45.54-45.54 45.54h-18.92c-25.151 0-45.54-20.389-45.54-45.54V51.517z"/><path fill="#0C9FE1" d="M114.767 49.683c-.04 7.071-5.763 12.794-12.834 12.834H17.6c-7.088 0-12.833-5.746-12.833-12.834.04-7.07 5.762-12.793 12.833-12.833h84.333c7.071.04 12.794 5.762 12.834 12.833z"/><path fill="#007FC6" fill-rule="nonzero" d="M30.433 55.183V36.667H67.1L37.767 55l-7.334.183zm71.5-18.333h-16.5v18.333h7.334l19.91-12.466a12.687 12.687 0 0 0-10.744-5.867z"/><rect width="110" height="25.667" x="4.767" y="36.85" stroke="#163150" stroke-linecap="round" stroke-linejoin="round" stroke-width="7.348" rx="12.833"/><path fill="#0C9FE1" fill-rule="nonzero" d="M44.88 91.85H34.32A3.923 3.923 0 0 1 30.433 88V77.403a3.923 3.923 0 0 1 3.887-3.886h10.56a3.923 3.923 0 0 1 3.887 3.886V88a3.923 3.923 0 0 1-3.887 3.85zm0 22a3.923 3.923 0 0 0 3.887-3.85V99.403a3.923 3.923 0 0 0-3.887-3.886H34.32a3.923 3.923 0 0 0-3.887 3.886V110a3.923 3.923 0 0 0 3.887 3.887l10.56-.037z"/><path fill="#E3EDFF" d="M23.1 49.023V36.85C23.1 16.6 39.516.183 59.767.183c20.25 0 36.666 16.417 36.666 36.667v12.173c0 1.394-4.106 2.494-9.166 2.494-5.06 0-9.167-1.1-9.167-2.494V36.85c0-10.125-8.208-18.333-18.333-18.333-10.126 0-18.334 8.208-18.334 18.333v12.173c0 1.394-4.106 2.494-9.166 2.494-5.06 0-9.167-1.1-9.167-2.494z"/><path stroke="#163150" stroke-linecap="round" stroke-linejoin="round" stroke-width="7.348" d="M23.1 49.023V36.85C23.1 16.6 39.516.183 59.767.183c20.25 0 36.666 16.417 36.666 36.667v12.173c0 1.394-4.106 2.494-9.166 2.494-5.06 0-9.167-1.1-9.167-2.494V36.85c0-10.125-8.208-18.333-18.333-18.333-10.126 0-18.334 8.208-18.334 18.333v12.173c0 1.394-4.106 2.494-9.166 2.494-5.06 0-9.167-1.1-9.167-2.494z"/><circle cx="74.433" cy="106.517" r="47.667" fill="#FFD166" stroke="#163150" stroke-linecap="round" stroke-linejoin="round" stroke-width="7.348"/><path stroke="#B5BFC7" stroke-linecap="round" stroke-linejoin="round" stroke-width="7.348" d="M135.263 132.183a66 66 0 0 0-6.93-63.58m-19.066 93.977a65.56 65.56 0 0 0 15.693-13.603m-105.27-5.574A66.22 66.22 0 0 0 39.6 162.58" opacity=".4"/><path fill="#FFC835" d="M59.767 99.183l5.573 4.804a1.467 1.467 0 0 0 1.54.22l.733-.404a.733.733 0 0 1 .807 0 .66.66 0 0 1 0 .807l-.183.293c-.21.299-.302.665-.257 1.027l1.21 7.773 5.207 3.667 14.666-19.58-3.666-13.42H67.063l-7.296 14.813z"/><path fill="#FFC835" d="M74.433 138.453a9.277 9.277 0 0 1-5.646-16.61 8.433 8.433 0 0 1-2.53-6.013c0-6.343 4.766-9.973 8.543-12.907 3.777-2.933 5.39-4.326 5.39-6.526 0-1.027 0-4.07-4.877-4.07-3.666 0-4.436 1.576-5.646 4.18a8.69 8.69 0 0 1-8.287 6.16 7.333 7.333 0 0 1-7.92-7.334c0-9.313 9.973-17.49 21.377-17.49 11.403 0 22.953 5.757 22.953 18.664 0 8.653-6.783 13.493-11.293 16.683a19.177 19.177 0 0 0-3.667 2.933 9.973 9.973 0 0 0-.917 1.98 10.78 10.78 0 0 1-2.053 3.667 9.277 9.277 0 0 1-5.5 16.757l.073-.074z"/><path fill="#FFB335" fill-rule="nonzero" d="M74.837 80.667c10.193 0 20.203 4.693 20.203 15.913 0 10.34-11.843 14.337-14.41 18.077-1.907 2.676-1.283 6.343-6.527 6.343a5.06 5.06 0 0 1-5.096-5.317c0-9.496 13.933-11.623 13.933-19.433a6.673 6.673 0 0 0-7.627-6.857c-10.193 0-6.196 10.524-13.933 10.524a4.767 4.767 0 0 1-5.17-4.584c0-7.81 8.91-14.666 18.627-14.666zm-.404 42.166a6.527 6.527 0 1 1 0 13.054 6.527 6.527 0 0 1 0-13.054zm.404-47.666c-12.87 0-24.127 9.46-24.127 20.24a10.303 10.303 0 0 0 10.67 10.34 11.44 11.44 0 0 0 10.78-7.884c1.173-2.53 1.21-2.64 3.153-2.64 1.944 0 2.127.55 2.127 1.357 0 .807-2.493 2.933-4.327 4.327-4.033 3.153-9.606 7.333-9.606 15.106a11.22 11.22 0 0 0 1.576 5.794 11.843 11.843 0 0 0-2.75 7.37c0 6.642 5.385 12.026 12.027 12.026 6.642 0 12.027-5.384 12.027-12.026a11.843 11.843 0 0 0-2.934-7.847c.39-.76.733-1.544 1.027-2.347.168-.493.377-.97.623-1.43A27.537 27.537 0 0 1 88 115.317c4.657-3.3 12.467-8.874 12.467-18.92 0-12.797-10.34-21.414-25.667-21.414l.037.184z"/></g></svg>