<svg xmlns="http://www.w3.org/2000/svg" width="126" height="144"><g fill="none" fill-rule="evenodd" transform="translate(3 1)"><path fill="#E3EDFF" fill-rule="nonzero" d="M119.06 34.577v66.028a15.626 15.626 0 0 1-4.55 11.06 15.505 15.505 0 0 1-11.018 4.568H47.059a15.505 15.505 0 0 1-11.017-4.568 15.626 15.626 0 0 1-4.55-11.06V17.907c0-4.145 1.64-8.12 4.56-11.05a15.537 15.537 0 0 1 11.007-4.578h40.087a20.555 20.555 0 0 1 14.66 6.186l11.416 11.721a20.684 20.684 0 0 1 5.837 14.39z"/><path fill="#163150" fill-rule="nonzero" stroke="#163150" stroke-linecap="round" stroke-linejoin="round" stroke-width="6.486" d="M103.07 8.27l9.73 10.158a3.919 3.919 0 0 1 .669 4.164 3.892 3.892 0 0 1-3.49 2.348h-7.136c-3.582 0-6.486-2.916-6.486-6.512v-7.423a3.907 3.907 0 0 1 2.428-3.665 3.881 3.881 0 0 1 4.285.93z"/><path stroke="#163150" stroke-linecap="round" stroke-linejoin="round" stroke-width="6.486" d="M119.06 34.577v66.028a15.626 15.626 0 0 1-4.55 11.06 15.505 15.505 0 0 1-11.018 4.568H47.059a15.505 15.505 0 0 1-11.017-4.568 15.626 15.626 0 0 1-4.55-11.06V17.907c0-4.145 1.64-8.12 4.56-11.05a15.537 15.537 0 0 1 11.007-4.578h40.087a20.555 20.555 0 0 1 14.66 6.186l11.416 11.721a20.684 20.684 0 0 1 5.837 14.39z"/><path fill="#163150" fill-rule="nonzero" d="M105.146 50.27H84.908c0 .456 0 .944.162 1.432a15.422 15.422 0 0 1 9.179 5.08h10.897v6.511H97.75a14.64 14.64 0 0 1 .52 3.972v1.823h6.875V75.6H98.27v6.512h6.876v6.511H98.27v7.586a46.187 46.187 0 0 1-4.41 20.024h-46.8a15.505 15.505 0 0 1-11.018-4.568 15.626 15.626 0 0 1-4.55-11.06V18.98a40.305 40.305 0 0 1 14.886-2.702c17.22-.364 32.518 10.98 37.233 27.61h21.535v6.38z" opacity=".15"/><path fill="#1EB8E7" fill-rule="nonzero" d="M.908 70.651h86.66v31.19c0 20.497-16.524 37.128-36.941 37.182h-9.47C18.923 139.005.908 120.906.908 98.586V70.651z"/><path fill="#FFF" fill-rule="nonzero" d="M12.454 80.419v24.418a32.63 32.63 0 0 0 9.195 24.395 32.368 32.368 0 0 0 24.08 9.791h-8.561c-20.044 0-36.26-15.042-36.26-37.572v-30.8l11.546 9.768z" opacity=".25"/><path stroke="#163150" stroke-linecap="round" stroke-linejoin="round" stroke-width="6.486" d="M.908 70.651h86.66v31.19c0 20.497-16.524 37.128-36.941 37.182h-9.47C18.923 139.005.908 120.906.908 98.586V70.651z"/><path fill="#0C9FE1" fill-rule="nonzero" d="M87.568 69.023a12.009 12.009 0 0 1-2.984 8.042 9.487 9.487 0 0 1-7.135 3.256H11.027C5.11 79.954.594 74.868.908 68.926a12.009 12.009 0 0 1 2.984-8.042 9.487 9.487 0 0 1 7.135-3.256h66.519a9.725 9.725 0 0 1 8.465 5.21 12.181 12.181 0 0 1 1.557 6.185z"/><path fill="#007FC6" fill-rule="nonzero" d="M21.146 73.907v-16.28h28.93L26.95 73.908h-5.805zm56.4-16.28H64.573v16.28h5.773l15.697-11.07a9.725 9.725 0 0 0-8.497-5.21z"/><rect width="86.757" height="22.791" x=".908" y="57.628" stroke="#163150" stroke-linecap="round" stroke-linejoin="round" stroke-width="6.486" rx="11.351"/><path fill="#E3EDFF" fill-rule="nonzero" d="M12.454 68.372V57.628c0-17.981 14.52-32.558 32.432-32.558a32.37 32.37 0 0 1 22.934 9.536 32.622 32.622 0 0 1 9.499 23.022v10.744c0 1.205-3.633 2.214-8.108 2.214-4.476 0-8.108-.977-8.108-2.214V57.628c0-8.99-7.26-16.28-16.217-16.28-8.955 0-16.216 7.29-16.216 16.28v10.744c0 1.205-3.632 2.214-8.108 2.214-4.346.065-8.108-.912-8.108-2.214z"/><path stroke="#163150" stroke-linecap="round" stroke-linejoin="round" stroke-width="6.486" d="M12.454 68.372V57.628c0-17.981 14.52-32.558 32.432-32.558a32.37 32.37 0 0 1 22.934 9.536 32.622 32.622 0 0 1 9.499 23.022v10.744c0 1.205-3.633 2.214-8.108 2.214-4.476 0-8.108-.977-8.108-2.214V57.628c0-8.99-7.26-16.28-16.217-16.28-8.955 0-16.216 7.29-16.216 16.28v10.744c0 1.205-3.632 2.214-8.108 2.214-4.346.065-8.108-.912-8.108-2.214z"/><path fill="#FFF" fill-rule="nonzero" d="M58.054 101.419a8.595 8.595 0 0 1-5.449 8.14v13.022c0 1.563-1.167-.455-2.627-.455-1.46 0-2.627 2.018-2.627.455v-13.023a8.595 8.595 0 0 1-5.48-8.172c0-4.495 3.63-8.14 8.107-8.14 4.478 0 8.108 3.645 8.108 8.14l-.032.033z" opacity=".4"/><path fill="#163150" fill-rule="nonzero" d="M53.578 100.93a8.137 8.137 0 0 1-5.448 7.684v12.079a2.632 2.632 0 0 1-2.627 2.637 2.632 2.632 0 0 1-2.627-2.637v-12.046c-3.92-1.33-6.214-5.408-5.324-9.464.89-4.056 4.68-6.788 8.794-6.34 4.113.448 7.23 3.934 7.232 8.087z"/></g></svg>