<svg xmlns="http://www.w3.org/2000/svg" width="19" height="24" fill="none"><path fill="#163150" fill-rule="evenodd" d="M5.024 7.256h5.336a.901.901 0 0 0 .894-.91c0-.504-.4-.91-.894-.91H5.024a.901.901 0 0 0-.893.91c0 .503.4.91.893.91zm0 3.816h8.865a.905.905 0 0 0 .894-.91c0-.504-.4-.91-.894-.91H5.024a.901.901 0 0 0-.893.91c0 .497.4.91.893.91zm8.908 3.81H5.067a.901.901 0 0 1-.893-.91.9.9 0 0 1 .893-.91h8.865c.494 0 .894.406.894.91 0 .503-.4.91-.894.91zm-8.908 3.816h8.865a.905.905 0 0 0 .894-.91c0-.504-.4-.91-.894-.91H5.024a.901.901 0 0 0-.893.91c0 .497.4.91.893.91zM2.084 1.82a.305.305 0 0 0-.297.303v19.754c0 .163.136.303.298.303h14.83c.162 0 .298-.14.298-.303V2.123a.305.305 0 0 0-.298-.303H2.085zM16.916 24H2.085C.935 24 0 23.047 0 21.877V2.123C0 .953.935 0 2.085 0h14.83C18.065 0 19 .952 19 2.123v19.754c0 1.17-.935 2.123-2.085 2.123z" clip-rule="evenodd"/></svg>