<svg xmlns="http://www.w3.org/2000/svg" width="171" height="170"><g fill="none" fill-rule="evenodd" transform="translate(3 4)"><path fill="#0C9FE1" stroke="#163150" stroke-linecap="round" stroke-linejoin="round" stroke-width="6.875" d="M164.416 129.697V90.99c-.038-8.707-7.107-15.744-15.813-15.744h-17.978c-8.706.038-15.744 7.106-15.744 15.812v12.582c.02 8.72 7.093 15.778 15.813 15.778h19.662a13.75 13.75 0 0 1 14.06 10.278z"/><path fill="#0C9FE1" stroke="#163150" stroke-linecap="round" stroke-linejoin="round" stroke-width="6.875" d="M42.281 147.984h106.563V68.922a11.275 11.275 0 0 0-10.313-10.313h-82.5c-6.875 0-13.75 3.438-13.75 10.313v79.062z"/><path fill="#1EB8E7" d="M42.281 65.484a12.96 12.96 0 0 0 13.75 13.75h82.5a11.31 11.31 0 0 1 10.313 10.313v61.875a11.412 11.412 0 0 1-10.313 10.312h-82.5c-7.438-.362-13.387-6.311-13.75-13.75v-82.5z"/><path stroke="#163150" stroke-linecap="round" stroke-linejoin="round" stroke-width="6.875" d="M42.281 65.484a12.96 12.96 0 0 0 13.75 13.75h82.5a11.31 11.31 0 0 1 10.313 10.313v61.875a11.412 11.412 0 0 1-10.313 10.312h-82.5c-7.438-.362-13.387-6.311-13.75-13.75v-82.5z"/><path fill="#1EB8E7" d="M164.416 93.397v38.672c-.038 8.706-7.107 15.744-15.813 15.744h-25.61c-8.705-.038-15.743-7.107-15.743-15.813v-12.547c.056-8.704 7.108-15.74 15.813-15.778h27.5a13.75 13.75 0 0 0 13.853-10.278z"/><path fill="#0C9FE1" d="M148.878 120.313c14.85 8.765 1.616 31.246-13.303 22.446l-11.516-4.846 11.207-24.75 13.612 7.15z"/><circle cx="129.523" cy="125.679" r="9.043" fill="#B3C1D6" stroke="#163150" stroke-linecap="round" stroke-linejoin="round" stroke-width="6.851" transform="rotate(-58.543 129.523 125.68)"/><path stroke="#163150" stroke-linecap="round" stroke-linejoin="round" stroke-width="6.875" d="M164.416 93.397v38.672c-.038 8.706-7.107 15.744-15.813 15.744h-25.61c-8.705-.038-15.743-7.107-15.743-15.813v-12.547c.056-8.704 7.108-15.74 15.813-15.778h27.5a13.75 13.75 0 0 0 13.853-10.278z"/><path fill="#E3EDFF" d="M62.906 66.584V34.375C62.906 15.39 78.296 0 97.281 0s34.375 15.39 34.375 34.375v11.447c0 1.272-3.85 2.337-8.594 2.337-4.743 0-8.593-1.065-8.593-2.337V34.375c0-9.492-7.695-17.188-17.188-17.188-9.492 0-17.187 7.696-17.187 17.188v32.072c0 1.272-3.85 2.337-8.594 2.337-4.744.138-8.594-.928-8.594-2.2z"/><path stroke="#163150" stroke-linecap="round" stroke-linejoin="round" stroke-width="6.875" d="M62.906 66.584V34.375C62.906 15.39 78.296 0 97.281 0s34.375 15.39 34.375 34.375v11.447c0 1.272-3.85 2.337-8.594 2.337-4.743 0-8.593-1.065-8.593-2.337V34.375c0-9.492-7.695-17.188-17.188-17.188-9.492 0-17.187 7.696-17.187 17.188v32.072c0 1.272-3.85 2.337-8.594 2.337-4.744.138-8.594-.928-8.594-2.2z"/><ellipse cx="123.063" cy="68.972" fill="#B3C1D6" stroke="#163150" stroke-linecap="round" stroke-linejoin="round" stroke-width="6.875" rx="8.594" ry="1"/><path fill="#FFD166" fill-rule="nonzero" stroke="#163150" stroke-linecap="round" stroke-linejoin="round" stroke-width="6.875" d="M61.119 117.047c-5.023-14.206-19.55-22.728-34.4-20.18-14.85 2.548-25.706 15.425-25.706 30.492 0 15.068 10.855 27.944 25.706 30.492 14.85 2.548 29.377-5.973 34.4-20.18h9.247l6.29-6.324 6.29 6.325h10.898v-20.625H61.119zm-29.15 24.062c-18.219 0-18.185-27.5 0-27.5v27.5z"/><path fill="#E3EDFF" stroke="#163150" stroke-linecap="round" stroke-linejoin="round" stroke-width="6.875" d="M93.844 106.734v41.25"/></g></svg>