<svg xmlns="http://www.w3.org/2000/svg" width="314" height="221" fill="none"><path fill="#A682FF" fill-opacity=".615" d="M138.44 187.5C209.91 144 309.91 4 249.11 4 204.2 4 149.47 85.865 110 85.865 70.53 85.865 25 67 25 103c-5 48-35.09 174.88 113.44 84.5z"/><path fill="#78E1F2" d="M27 175c14.36 0 26-11.641 26-26s-11.64-26-26-26-26 11.641-26 26 11.64 26 26 26z"/><path fill="#D8D8D8" d="M237 90.052H71v94h166v-94z"/><path fill="#163050" d="M229.5 99.552h-150v21h150v-21z" opacity=".1"/><path fill="#fff" stroke="#163050" stroke-linecap="round" stroke-linejoin="round" stroke-width="3" d="M260 50.052H49a4 4 0 0 0-4 4v28a4 4 0 0 0 4 4h211a4 4 0 0 0 4-4v-28a4 4 0 0 0-4-4zm-206 36h201v9a3.997 3.997 0 0 1-4 4H58a4 4 0 0 1-4-4v-9zm4 92h193a4 4 0 0 1 4 4v14H54v-14a3.998 3.998 0 0 1 4-4z"/><path fill="#D8D8D8" stroke="#163050" stroke-linecap="round" stroke-linejoin="round" stroke-width="3" d="M245.5 49.952h-183l16.79-8.9 69.61-36.89a10.06 10.06 0 0 1 9.39 0l70.26 36.9 16.45 8.64.5.25z"/><path fill="#fff" stroke="#163050" stroke-linecap="round" stroke-linejoin="round" stroke-width="3" d="M80 99.052H63v79h17v-79zm49 0h-17v79h17v-79zm68 0h-17v79h17v-79z"/><path fill="#FFD167" d="M15.14 200.464l4.95 4.95-4.95 4.95 4.95 4.95-4.95 4.95-4.95-4.95-4.95 4.95-4.95-4.95 4.95-4.95-4.95-4.95 4.95-4.95 4.95 4.95 4.95-4.95z"/><path fill="#fff" stroke="#163050" stroke-linecap="round" stroke-linejoin="round" stroke-width="3" d="M246 99.052h-17v79h17v-79z"/><path fill="#FFD167" d="M202.08 80.552a1.5 1.5 0 0 1-1.2-.6l-4.14-5.49v4.59a1.5 1.5 0 0 1-1.5 1.5h-7a1.502 1.502 0 0 1-1.5-1.5v-21a1.5 1.5 0 0 1 1.5-1.5h7a1.502 1.502 0 0 1 1.5 1.5v3.73l4.29-4.74a1.505 1.505 0 0 1 1.11-.49h7.71a1.5 1.5 0 0 1 1.11 2.51l-7.57 8.32 8.11 10.75a1.502 1.502 0 0 1-1.2 2.4l-8.22.02zm-28.24 0a1.498 1.498 0 0 1-1.15-.54l-5.33-6.37v5.41a1.5 1.5 0 0 1-1.5 1.5h-6.9a1.502 1.502 0 0 1-1.5-1.5v-21a1.5 1.5 0 0 1 1.5-1.5h5.82a1.503 1.503 0 0 1 1.15.54l5.33 6.37v-5.41a1.5 1.5 0 0 1 1.5-1.5h6.9a1.502 1.502 0 0 1 1.5 1.5v21a1.5 1.5 0 0 1-1.5 1.5h-5.82zm-29.54 0a1.502 1.502 0 0 1-1.4-1l-1-2.7h-5.92l-1 2.7a1.505 1.505 0 0 1-1.4 1h-7.2a1.5 1.5 0 0 1-1.37-2.1l9.18-21a1.496 1.496 0 0 1 1.31-.9h7a1.503 1.503 0 0 1 1.37.9l9.18 21a1.502 1.502 0 0 1-1.37 2.1h-7.38zm-45.11 0a1.5 1.5 0 0 1-1.5-1.5v-21a1.5 1.5 0 0 1 1.5-1.5h11.22c3.14 0 5.5.58 7.2 1.77a6.162 6.162 0 0 1 2.79 5.23 6.362 6.362 0 0 1-1 3.44 6.142 6.142 0 0 1-.68.89c.491.37.932.804 1.31 1.29a6.538 6.538 0 0 1 1.33 4.1 6.355 6.355 0 0 1-3 5.52c-1.79 1.19-4.22 1.77-7.43 1.77l-11.74-.01zm10.31-16c.228.005.456-.015.68-.06a3.137 3.137 0 0 0-.68-.06h-1.8v.12h1.8z"/><path fill="#163050" d="M209.85 58.032l-8.4 9.24 8.82 11.76h-8.19l-5.25-7-1.59 1.77v5.19h-7v-21h7v7.62l6.9-7.62h7.71v.04zm-30.19-.04v21h-5.82l-8-9.54v9.54h-6.9v-21h5.82l8 9.54v-9.54h6.9zm-37.22 0l9.18 21h-7.32l-1.41-3.66h-8l-1.39 3.7h-7.2l9.18-21h7l-.04-.04zm-5.54 12.28h4.08l-2-5.28-2 5.28h-.08zm-26.37-12.24c2.8 0 4.913.5 6.34 1.5a4.65 4.65 0 0 1 2.15 4 4.862 4.862 0 0 1-.73 2.64 5.274 5.274 0 0 1-2.18 1.89 6.298 6.298 0 0 1 2.88 2 5.003 5.003 0 0 1 1 3.18 4.845 4.845 0 0 1-2.28 4.27 11.928 11.928 0 0 1-6.6 1.52H99.19v-21h11.34zm-4.38 8.07h3.35c1.54 0 2.31-.52 2.31-1.56s-.77-1.56-2.31-1.56h-3.3v3.12h-.05zm.05 8h4.26c1.56 0 2.34-.55 2.34-1.65 0-1.1-.78-1.65-2.34-1.65h-4.26v3.3zm103.7-19h-7.71a3 3 0 0 0-2.22 1l-1.68 1.86a3 3 0 0 0-3-2.84h-7a2.998 2.998 0 0 0-3 3v21a2.999 2.999 0 0 0 3 3h7a2.998 2.998 0 0 0 3-3v-.11l1.44 1.92a2.992 2.992 0 0 0 2.4 1.19h8.19a3 3 0 0 0 2.4-4.8l-7.33-9.78 6.68-7.35a2.999 2.999 0 0 0-.513-4.57 2.998 2.998 0 0 0-1.647-.5l-.01-.02zm-30.19 0h-6.9a2.998 2.998 0 0 0-3 3v1.28l-2.68-3.2a3.004 3.004 0 0 0-2.3-1.08h-5.82a2.998 2.998 0 0 0-3 3v21a2.999 2.999 0 0 0 3 3h6.9a2.997 2.997 0 0 0 3-3v-1.35l2.68 3.2a3.003 3.003 0 0 0 2.3 1.08h5.82a2.997 2.997 0 0 0 3-3v-21a2.999 2.999 0 0 0-3-3v.07zm-37.22 0h-7a2.997 2.997 0 0 0-2.75 1.8l-9.18 21a3.001 3.001 0 0 0 2.75 4.2h7.19a3.001 3.001 0 0 0 2.8-1.92l.67-1.74h3.86l.67 1.74a2.997 2.997 0 0 0 2.8 1.92h7.32a3.004 3.004 0 0 0 2.51-1.356 3.001 3.001 0 0 0 .24-2.844l-9.18-21a3 3 0 0 0-2.75-1.8h.05zm-32 0h-11.3a3 3 0 0 0-3 3v21a3 3 0 0 0 3 3h11.82c3.52 0 6.22-.66 8.26-2a7.806 7.806 0 0 0 3.62-6.77 8.002 8.002 0 0 0-1.65-5 12.376 12.376 0 0 0-.48-.57 7.844 7.844 0 0 0 1.14-4.21 7.609 7.609 0 0 0-3.42-6.45c-2-1.37-4.6-2-8.06-2h.07z"/><path fill="#163050" d="M254.5 85.552h-201v7h201v-7zm-58 14v4l-11 4v70h-5v-78h16zm49 0v4l-11 4v70h-5v-78h16zm-166 0v4l-11 4v70h-5v-78h16zm49 0v4l-11 4v70h-5v-78h16z" opacity=".1"/><path fill="#78E1F2" d="M278.351 85.137l-1.35-13.626 35.4-3.511 1.349 13.626-35.399 3.511zm-4.326-34.684l-7.411-11.511 29.905-19.278 7.411 11.512-29.905 19.277zm-16.881-27.82l-7.138-4.048L260.532 0l7.137 4.048-10.525 18.585z"/><path fill="#C8B1FF" d="M269.157 192.413l8.407-8.413 8.408 8.413-8.408 8.413-8.407-8.413zm-21 20l8.407-8.413 8.408 8.413-8.408 8.413-8.407-8.413z"/></svg>