<svg xmlns="http://www.w3.org/2000/svg" width="310" height="223" fill="none"><path fill="#A682FF" fill-opacity=".615" d="M151.72 37.365c71.47 43.5 171.47 183.5 110.67 183.5-44.91 0-173.72 1-213.19 1s-45.94-41.9-32.65-98.5c19.96-85-13.36-176.38 135.17-86z"/><path fill="#fff" stroke="#163050" stroke-linecap="round" stroke-linejoin="round" stroke-width="3" d="M299.69 213.865h-271v7h271v-7z"/><path fill="#D8D8D8" stroke="#163050" stroke-linecap="round" stroke-linejoin="round" stroke-width="3" d="M170.02 213.865h-52.29l2.28-27h47.73l2.28 27z"/><path fill="#D8D8D8" stroke="#163050" stroke-linecap="round" stroke-linejoin="round" stroke-width="3" d="M176.19 207.865h-61v6h61v-6z"/><path fill="#78E1F2" stroke="#163050" stroke-linecap="round" stroke-linejoin="round" stroke-width="3" d="M241.99 43.865H57.39c-8.119 0-14.7 6.581-14.7 14.7v114.6c0 8.118 6.581 14.7 14.7 14.7h184.6c8.119 0 14.7-6.582 14.7-14.7v-114.6c0-8.119-6.581-14.7-14.7-14.7z"/><path fill="#D8D8D8" stroke="#163050" stroke-linecap="round" stroke-linejoin="round" stroke-width="3" d="M256.69 163.865v9.3a14.7 14.7 0 0 1-14.7 14.7H57.39a14.7 14.7 0 0 1-14.7-14.7v-9.3h214z"/><path fill="#F0CCBC" stroke="#163050" stroke-linecap="round" stroke-linejoin="round" stroke-width="3" d="M246.95 76.865h-21.52c-10.897 0-19.73 8.833-19.73 19.73v32.54c0 10.896 8.833 19.73 19.73 19.73h21.52c10.896 0 19.73-8.834 19.73-19.73v-32.54c0-10.897-8.834-19.73-19.73-19.73z"/><path fill="#CE9D84" stroke="#163050" stroke-linecap="round" stroke-linejoin="round" stroke-width="3" d="M269.69 88.595v40.54a19.731 19.731 0 0 1-19.73 19.73h-7.09a19.18 19.18 0 0 1-19.18-19.18v-16.47a12.35 12.35 0 0 0-12.35-12.35 8.65 8.65 0 0 1-8.65-8.65v-3.62a19.73 19.73 0 0 1 19.73-19.73h27.54a19.729 19.729 0 0 1 19.73 19.73z"/><path fill="#163050" stroke="#163050" stroke-linecap="round" stroke-linejoin="round" stroke-width="3" d="M205.7 105.955v14l-1.51 2.12a2.46 2.46 0 0 1-3.3.66 5.235 5.235 0 0 1-2.17-4.52v-5.68c0-3.13 2.06-5.93 4.6-6.26l2.38-.32z"/><path fill="#163050" stroke="#163050" stroke-linecap="round" stroke-linejoin="round" stroke-width="3" d="M204.19 108.085l17.52 4.78-23 2 .49-3.39a3.99 3.99 0 0 1 1.723-2.831 4.002 4.002 0 0 1 3.267-.559z"/><path fill="#fff" stroke="#163050" stroke-linecap="round" stroke-linejoin="round" stroke-width="3" d="M207.59 152.035l19.26-3.17h28l12.63 2.44a19 19 0 0 1 15.2 15.86l7 53.7h-102l7.35-55.87a15.53 15.53 0 0 1 12.56-12.96z"/><path fill="#F0CCBC" stroke="#163050" stroke-linecap="round" stroke-linejoin="round" stroke-width="3" d="M141.69 195.865h22v18h-37v-3a15 15 0 0 1 15-15z"/><path fill="#fff" d="M198.78 198.475c-6.2 5.91-12.21 11.53-12.21 11.53a23.499 23.499 0 0 1-12.91 3.87h-35v-5.59a16.407 16.407 0 0 1 16.41-16.41h18.62l23.88-34.17"/><path stroke="#163050" stroke-linecap="round" stroke-linejoin="round" stroke-width="3" d="M198.78 198.475c-6.2 5.91-12.21 11.53-12.21 11.53a23.499 23.499 0 0 1-12.91 3.87h-35v-5.59a16.407 16.407 0 0 1 16.41-16.41h18.62l23.88-34.17"/><path fill="#2A455F" d="M149.69 181.865a6 6 0 1 0 0-12 6 6 0 0 0 0 12z"/><path fill="#FFD167" d="M178.14 1.465l4.95 4.95-4.95 4.95 4.95 4.95-4.95 4.95-4.95-4.95-4.95 4.95-4.95-4.95 4.95-4.95-4.95-4.95 4.95-4.95 4.95 4.95 4.95-4.95z"/><path fill="#78E1F2" d="M27.05 180.584l3.55 9.78-26.03 11.02L0 188.814l27.05-8.23z"/><path fill="#007A99" d="M270.05 40.255l-9.1-5 12.37-25.42 11.7 6.47-14.97 23.95zm22.58 2.52l-6.87-7.28-14.57 15.31 5.34 5.66 16.1-13.69z"/><path fill="#FFD167" d="M292.69 142.865a4 4 0 1 0 0-8 4 4 0 0 0 0 8z"/><path fill="#007A99" d="M149.69 149.865c24.3 0 44-19.7 44-44s-19.7-44-44-44c-24.301 0-44 19.7-44 44s19.699 44 44 44z"/><path fill="#F2F2F2" d="M158.14 109.655a3.417 3.417 0 0 1 2.43-1.009 3.432 3.432 0 0 1 2.43 1.009 5.529 5.529 0 0 1 1.618 3.905 5.529 5.529 0 0 1-1.618 3.905l-9.81 9.83a5.533 5.533 0 0 1-3.905 1.618 5.514 5.514 0 0 1-3.905-1.618l-9.83-9.82a5.529 5.529 0 0 1-1.619-3.905 5.518 5.518 0 0 1 1.619-3.905 3.417 3.417 0 0 1 2.43-1.009 3.432 3.432 0 0 1 2.43 1.009l5 5a5.518 5.518 0 0 0 7.81 0l4.92-5.01zm15.26-15.44l-9.38-9.37a5.321 5.321 0 0 0-7.52.08l-7.23 7.24-7.11-7.11a5.33 5.33 0 0 0-3.782-1.522 5.328 5.328 0 0 0-3.748 1.602l-9.56 9.57a5.32 5.32 0 0 0-.07 7.52 3.221 3.221 0 0 0 2.3.95 3.375 3.375 0 0 0 2.38-1l4.83-4.84a5.323 5.323 0 0 1 5.79-1.217 5.33 5.33 0 0 1 1.74 1.137l4.75 4.74a3.224 3.224 0 0 0 1.89.92h.49a3.375 3.375 0 0 0 2.38-1l4.84-4.84a5.32 5.32 0 0 1 7.52-.08l4.75 4.74a3.31 3.31 0 0 0 4.68 0 5.41 5.41 0 0 0 1.59-3.83 5.182 5.182 0 0 0-1.54-3.69h.01z"/><path fill="#C8B1FF" d="M293.157 158.413l8.407-8.413 8.408 8.413-8.408 8.413-8.407-8.413z"/></svg>