<svg xmlns="http://www.w3.org/2000/svg" viewBox="0 0 636.49 130.89"><path fill="#fffffe" fill-rule="evenodd" d="M561.12 103.34h8v-47.7h-8m0-6.21h8v-8h-8m-370.23-.45c-8.72 0-18 3.42-18 11.75 0 7.45 8.53 9.6 18.61 11.27 13.72 2.15 27.23 4.89 27.23 20.37s-14.78 20.37-27.91 20.37c-12.15 0-23.71-4.41-29-15.87l7.06-4.11c4.41 8.13 13.61 12 22 12s19.39-2.65 19.39-12.73c.1-8.53-9.5-11-19.79-12.54-13.22-2.06-26-5.1-26-19-.19-14.3 14.4-19.2 26.25-19.2 10.19 0 19.89 2.05 26 12.44l-6.47 4c-3.72-6-11.65-8.71-19.29-8.81m42.3-6v28.1c4.11-6.37 10.58-8.52 16.75-8.62 13.61 0 20.27 9 20.27 22.33v26.64h-7.93V76.83c0-9.5-4.9-14.89-13.72-14.89s-15.28 7-15.28 15.77v25.66h-8V34.81h7.94v.1m69 26.9c-9.6 0-17.33 6.86-17.33 17.63s7.73 17.73 17.33 17.73c23.31 0 23.31-35.46.1-35.46zm17.63 41.73l-.19-8.82c-3.82 6.66-11.17 9.8-17.83 9.8-13.91 0-24.78-9.6-24.78-25.37s11.07-25.08 24.88-25c7.25 0 14.4 3.33 17.93 9.6l.09-8.82h7.84v48.39h-7.74l-.19.2zm58-24.1c0-10.87-7.15-17.34-17-17.34-10.09 0-16.94 7.45-16.94 17.34s7.15 17.34 16.94 17.44 17-6.56 17-17.44zm-42.8-24.29h7.64l.39 9.3a21.4 21.4 0 0 1 18.61-10.22c13.91.29 24.1 10.09 24.1 25 0 15.28-10.09 25.18-24.59 25.18-6.85 0-14.49-2.94-18.31-9.8v31.54h-7.84v-71zm97.61 20.47c-.4-9.4-6.86-14.49-16.36-14.49-8.43 0-15.77 5.09-17.14 14.39h33.49v.1zm4.7 20c-4.9 5.78-13.32 8.62-20.87 8.62-15 0-25.46-9.89-25.46-25.27 0-14.59 10.48-25.07 25.07-25.07 14.79 0 26.06 9.11 24.19 28.4h-41.13c.88 8.92 8.22 14.5 17.53 14.5 5.48 0 12.14-2.16 15.38-6.07l5.38 4.89zm36.5-54.65c-8.72 0-18 3.42-18 11.75 0 7.45 8.52 9.6 18.61 11.27 13.71 2.15 27.23 4.89 27.23 20.37s-14.79 20.37-27.92 20.37c-12.14 0-23.7-4.41-29-15.87l7.05-4.11c4.41 8.13 13.62 12 22 12s19.39-2.65 19.39-12.73c.1-8.53-9.5-11-19.78-12.54-13.23-2.06-26.06-5.1-26.06-19-.19-14.3 14.4-19.2 26.25-19.2 10.19 0 19.89 2.05 26 12.44l-6.46 4c-3.73-6-11.66-8.71-19.3-8.81m42.12-6.03v28.11c4.11-6.37 10.58-8.52 16.75-8.62 13.61 0 20.27 9 20.27 22.33v26.64h-7.93V76.8c0-9.5-4.9-14.89-13.71-14.89s-15.28 6.95-15.28 15.77v25.66h-8V34.78h7.9v.1m68.4 68.71v-.1h-.1l.1.1m9.51-51.87c0-7.25 3.33-10.48 8.52-10.48h.3l1.81-6.9a17.69 17.69 0 0 0-2.31-.16c-10.18.05-16.23 6.48-16.23 17.54v3.82h-9.5v7.06h9.5v40.74h7.94V62.6h9.61v-7.06h-9.61v-3.82m40.93 44.9a12 12 0 0 1-1.86.16c-5.78 0-7.64-3.63-7.64-9.31V62.53h10.31v-7h-10.24V40.85l-8 .88v13.84h-9.7v7h9.7v24.9c0 10.68 4.9 16.75 15.28 16.56a21.12 21.12 0 0 0 3.74-.45l-1.59-7M110.98 10.95l-5.8 34.77-20.62-24.26zm-5.67 49.73l5.16 19L71 90.6zM19.4 51.1l21.16-27.64H77.3l23.49 27.64zm78.67 6.83L59.81 91.3l-39-33.37h77.26zm-64.6-36.45l-18.9 24.69-5.81-35.09 24.71 10.39zm15 69.11L8.64 79.74l5.43-18.59zm7.35 9.08l-7.52 8.28a124.94 124.94 0 0 0-20.86-16l28.38 7.73zm36.48-7.85a125 125 0 0 0-20.8 16.2l-7.68-8.36 28.48-7.84zM119.71.13l-41.48 16.5H39.56L0 0l9 54.3L.36 83.7l22.51 13.46a118 118 0 0 1 28.38 23.69l8.77 10 9.2-10.55a117.65 117.65 0 0 1 27.32-23.07l22.08-13.54-8-29.36z"/></svg>