<svg xmlns="http://www.w3.org/2000/svg" width="36" height="36"><defs><mask id="a" width="36" height="36" x="0" y="0" maskUnits="userSpaceOnUse"><rect width="36" height="36" fill="#fff" rx="4"/></mask><mask id="b" width="16" height="16" x="10" y="10" maskUnits="userSpaceOnUse"><path fill="#fff" fill-rule="evenodd" d="M15 23l6-5-6-5z"/></mask></defs><rect width="36" height="36" fill="#fff" rx="4"/><g mask="url(#a)"><path fill="#fff" fill-rule="evenodd" d="M36 36H0V0h36z"/></g><path fill="none" stroke="#1eb8e7" d="M32 35.5a3.5 3.5 0 0 0 3.5-3.5V4A3.5 3.5 0 0 0 32 .5H4A3.5 3.5 0 0 0 .5 4v28A3.5 3.5 0 0 0 4 35.5z"/><g mask="url(#b)"><path fill="#99968c" fill-rule="evenodd" d="M26 26H10V10h16z"/></g></svg>