<svg xmlns="http://www.w3.org/2000/svg" xmlns:xlink="http://www.w3.org/1999/xlink" width="620" height="620"><title>swap</title><defs><circle id="a" cx="170" cy="170" r="170"/><circle id="c" cx="170" cy="170" r="170"/></defs><g fill="none" fill-rule="evenodd"><g transform="translate(0 280)"><mask id="b" fill="#fff"><use xlink:href="#a"/></mask><circle cx="170" cy="170" r="160" stroke="#0E97C0" stroke-width="20"/><path fill="#FFE14D" d="M-1.133 1.133h173.4v340h-173.4z" mask="url(#b)"/><path fill="#FC3" d="M171.133 1.133h173.4v340h-173.4z" mask="url(#b)"/><circle cx="170" cy="170" r="160" stroke="#333" stroke-width="20" mask="url(#b)"/><circle cx="170" cy="170" r="96.333" stroke="#F28618" stroke-width="20" mask="url(#b)"/></g><g transform="translate(280)"><mask id="d" fill="#fff"><use xlink:href="#c"/></mask><circle cx="170" cy="170" r="160" stroke="#0E97C0" stroke-width="20"/><path fill="#6EA6E8" d="M-1.133 1.133h173.4v340h-173.4z" mask="url(#d)"/><path fill="#5C9BE4" d="M171.133 1.133h173.4v340h-173.4z" mask="url(#d)"/><circle cx="170" cy="170" r="160" stroke="#333" stroke-width="20" mask="url(#d)"/><circle cx="170" cy="170" r="96.333" stroke="#2F79CF" stroke-width="20" mask="url(#d)"/></g><g fill-rule="nonzero"><path fill="#0492BE" d="M537.67 328h73.75v163.31H370.71v63.22L239 454.44l131.71-100.1v63.22h166.96z"/><path fill="#103957" d="M574.54 454.44H239l131.71 100.09v-63.22h240.71V328h-36.88z" opacity=".2"/><path fill="#000" d="M378.66 570.36L226 454.36l152.66-116v71.25h151.16V320h89.56v179.11H378.66v71.25zm-126.55-116l110.74 84.16v-55.21h240.73V335.8h-57.95v89.56H362.86v-55.19l-110.75 84.19z"/></g><g fill-rule="nonzero"><path fill="#0492BE" d="M82.33 292H8.58V128.69h240.71V65.47L381 165.56l-131.71 100.1v-63.22H82.33z"/><path fill="#103957" d="M45.46 165.56H381L249.29 65.47v63.22H8.58V292h36.88z" opacity=".2"/><path fill="#000" d="M241.34 49.64l152.66 116-152.66 116v-71.25H90.18V300H.62V120.89h240.72V49.64zm126.55 116L257.15 81.48v55.21H16.42V284.2h57.95v-89.56h182.77v55.19l110.75-84.19z"/></g></g></svg>