<svg xmlns="http://www.w3.org/2000/svg" width="47" height="57" fill="none"><path fill="#1EB8E7" d="M22.177 8.028a20.364 20.364 0 1 0 .124 40.727 20.364 20.364 0 0 0-.124-40.727zm0 34.514a14.2 14.2 0 0 1-14.2-14.15c0-1.874 1.344-14.2 14.2-14.2a14.203 14.203 0 0 1 15.037 14.175 14.2 14.2 0 0 1-15.037 14.175z"/><path fill="#0C9FE1" d="M20.415 42.542l7.396 6.78 6.471-2.922-6.78-4.782-7.087.924zM1 24.83l7.088 6.002 1.085-7.544-6.632-3.55L1 24.83z"/><path stroke="#163150" stroke-linecap="round" stroke-linejoin="round" stroke-width="2.465" d="M22.177 8.028a20.364 20.364 0 1 0 .124 40.727 20.364 20.364 0 0 0-.124-40.727zm0 34.514a14.2 14.2 0 0 1-14.2-14.15c0-1.874 1.344-14.2 14.2-14.2a14.203 14.203 0 0 1 15.037 14.175 14.2 14.2 0 0 1-15.037 14.175z"/><path fill="#E3EDFF" stroke="#163150" stroke-linecap="round" stroke-linejoin="round" stroke-width="2.465" d="M40.371 46.93l-13.559-3.229-16.95-16.752 10.109-10.12 16.863 16.85 3.537 13.252z"/><path fill="#FFD166" d="M36.649 33.359c-.888 6.718-3.144 9.085-10.071 10.059L3.009 19.935l.099-.098-.543-5.56L7.558 9.26l5.56.543 23.53 23.556z"/><path fill="#FFA815" d="M26.578 36.379l4.622 6.016-4.66 1.072-23.48-23.63 6.25.074 6.175 6.607 6.163-7.396 8.629 8.628-3.698 8.629z"/><path stroke="#163150" stroke-linecap="round" stroke-linejoin="round" stroke-width="2.465" d="M3.059 19.91h6.25l4.178-4.178-.37-5.954"/><path stroke="#163150" stroke-linecap="round" stroke-linejoin="round" stroke-width="2.465" d="M36.649 33.359c-.888 6.718-3.144 9.085-10.071 10.059L3.009 19.935l.099-.098-.543-5.56L7.558 9.26l5.56.543 23.53 23.556z"/><path fill="#163150" d="M6.855 15.424H5.622v1.233h1.233v-1.233zm1.233 0H6.855v1.233h1.233v-1.233zm1.232-1.233H8.089v1.233H9.32V14.19z"/><path fill="#163150" d="M8.088 14.191H6.855v1.233h1.233V14.19zm1.232-1.232H8.089v1.232H9.32V12.96zm24.272 32.357a6.3 6.3 0 0 0 5.313-5.239l1.232 6.163-6.545-.924z"/><path fill="#1EB8E7" d="M16.926 45.981l-6.36-3.426 8.036-14.928 8.444-15.692 6.36 3.415-8.517 15.815-7.963 14.816z"/><path stroke="#163150" stroke-linecap="round" stroke-linejoin="round" stroke-width="2.465" d="M12.538 38.894l6.064-11.267 7.002-13.017m6.2 3.723L24.89 31.165l-5.695 10.601"/><path stroke="#B5BFC7" stroke-linecap="round" stroke-linejoin="round" stroke-width="2.465" d="M35.576 5.649a26.465 26.465 0 0 0-20.388-2.712M45.339 15.72a26.503 26.503 0 0 0-4.45-5.942M18.122 54.475c2.862.439 5.776.41 8.628-.087" opacity=".4"/></svg>