<svg xmlns="http://www.w3.org/2000/svg" width="42" height="40" fill="none"><path fill="#1EB8E7" d="M38.8 35.25L34.94 26 24.6 1h-8l-4.07 9.83L5 29l-4 9.72h8.3l3.17-6.39.13-.33h16l1 2 2.18 4.67h8.5l-1.48-3.42zM20.53 9.56l4.69 12.19.86 2.25h-11.1l4.26-11.07 1.29-3.37z"/><path fill="#0087B9" d="M38.8 35.25l-2.91 1.52-2-.86L32.75 33l-2.88 1.14-.27-.14-1-2h-1.56l-.69-1.73-2.89 1.18-4.11-1.9A10.35 10.35 0 0 1 14.98 32a9.533 9.533 0 0 1-2.53.31A10.69 10.69 0 0 1 5 29l7.51-18.15a11.63 11.63 0 0 1 6.73 2.09L14.98 24h11.1l-.86-2.24L34.94 26l3.86 9.25z"/><path stroke="#163150" stroke-linecap="round" stroke-linejoin="round" stroke-width="2" d="M38.8 35.25L34.94 26 24.6 1h-8l-4.07 9.83L5 29l-4 9.72h8.3l3.17-6.39.13-.33h16l1 2 2.18 4.67h8.5l-1.48-3.42zM20.53 9.56l4.69 12.19.86 2.25h-11.1l4.26-11.07 1.29-3.37z"/><path fill="#1EB8E7" d="M10.517 8.24L4.841 21.376l7.83 3.383 5.676-13.136-7.83-3.383z"/><path fill="#FFD166" stroke="#163150" stroke-linecap="round" stroke-linejoin="round" stroke-width="2" d="M40.42 26.34l-16.57-9.08C24.6 6.4 9.2 1.35 3.6 11.61c-5.41 9.87 6.28 20.56 15.26 13.73l3.91 2.27 3-.91.87 3 2.27 1.25 3-.87.87 3 1.82.99 5.68-2.34.14-5.39zM10.72 21c-5.55-3-1-11.42 4.59-8.38L10.72 21z"/><path stroke="#fff" stroke-miterlimit="10" d="M22.31 19.82l14.45 7.92" opacity=".6"/><path stroke="#fff" stroke-miterlimit="10" d="M17.08 12.87l-5.21 9.52" opacity=".5"/></svg>