<svg xmlns="http://www.w3.org/2000/svg" width="54" height="41" fill="none"><path fill="#D8D8D8" stroke="#163050" stroke-linecap="round" stroke-linejoin="round" stroke-width="2" d="M34.31 40H19.69l.55-2 .82-3h11.88l.82 3 .55 2z"/><path stroke="#163050" stroke-linecap="round" stroke-linejoin="round" stroke-width="2" d="M36.5 40h-19"/><path fill="#003C77" d="M33.76 38H20.24l.82-3h11.88l.82 3z" opacity=".2"/><path fill="#1EB8E7" stroke="#163050" stroke-linecap="round" stroke-linejoin="round" stroke-width="2" d="M45.94 5H8.06A3.06 3.06 0 0 0 5 8.06v23.88A3.06 3.06 0 0 0 8.06 35h37.88A3.06 3.06 0 0 0 49 31.94V8.06A3.06 3.06 0 0 0 45.94 5z"/><path fill="#D8D8D8" stroke="#163050" stroke-linecap="round" stroke-linejoin="round" stroke-width="2" d="M49 28v3.94A3.06 3.06 0 0 1 45.94 35H8.06A3.06 3.06 0 0 1 5 31.94V28h44z"/><path fill="#163050" d="M28 30h-2v2h2v-2z"/><path fill="#007FC6" d="M27 25.5a9 9 0 1 0 0-18 9 9 0 0 0 0 18z"/><path stroke="#B5BFC7" stroke-linecap="round" stroke-linejoin="round" stroke-width="2" d="M34 1h11.94A7.07 7.07 0 0 1 53 8.06V11M26 1h3M9.77 39H8.06A7.07 7.07 0 0 1 1 31.94v-4.51" opacity=".4"/><path stroke="#fff" stroke-linecap="round" stroke-linejoin="round" stroke-width="2" d="M21.4 15.6L24 13l3 3 3-3 2.69 2.69m-8.6 3.23L27 21.54l2.97-2.62"/></svg>