<svg xmlns="http://www.w3.org/2000/svg" width="54" height="54" fill="none"><path fill="#1EB8E7" stroke="#163150" stroke-linecap="round" stroke-linejoin="round" stroke-width="2.465" d="M49.088 17.063l-11.834 6.83V10.258a18.576 18.576 0 0 0-6.73 0v13.645L18.69 17.076a19.724 19.724 0 0 0-3.353 5.83l11.822 6.829-11.821 6.829a19.723 19.723 0 0 0 3.352 5.83l11.834-6.828v13.633c2.225.41 4.506.41 6.73 0V35.553l11.834 6.83a19.722 19.722 0 0 0 3.353-5.831l-11.822-6.83 11.822-6.816a19.721 19.721 0 0 0-3.353-5.843z"/><path stroke="#B5BFC7" stroke-linecap="round" stroke-linejoin="round" stroke-width="2.465" d="M18.42 5.328v-2.17l4.437-.776A25.035 25.035 0 0 1 27.17 2a24.67 24.67 0 0 1 3.895.32M5.464 29.6l4.216-2.441L2 22.733l1.294-3.513m20.179 32.814l-.616-.086-4.475-.765v-2.711" opacity=".4"/><path fill="#fff" stroke="#163150" stroke-linecap="round" stroke-linejoin="round" stroke-width="2.465" d="M42.358 14.512l-11.834 6.84V7.696a18.576 18.576 0 0 0-6.73 0v13.658l-11.834-6.83a19.723 19.723 0 0 0-3.353 5.831l11.784 6.817L8.571 34a19.723 19.723 0 0 0 3.401 5.843l11.834-6.83v13.622c2.225.41 4.505.41 6.73 0V32.989l11.834 6.854a19.722 19.722 0 0 0 3.353-5.83L33.95 27.17l11.821-6.829a19.721 19.721 0 0 0-3.414-5.83z"/></svg>