<svg xmlns="http://www.w3.org/2000/svg" width="32" height="42" fill="none"><path fill="#E3EDFF" d="M30 13.18v21.27a5.3 5.3 0 0 1-5.33 5.27H7.33A5.3 5.3 0 0 1 2 34.45V7.61a5.33 5.33 0 0 1 5.33-5.33h11.74a7.1 7.1 0 0 1 5 2.09l3.91 4A6.93 6.93 0 0 1 30 13.18z"/><path fill="#163150" stroke="#163150" stroke-linecap="round" stroke-linejoin="round" stroke-width="2" d="M23.1 2.3l6.67 6.91a.34.34 0 0 1-.24.57h-4.81a2.22 2.22 0 0 1-2.22-2.22v-5a.35.35 0 0 1 .6-.26z"/><path stroke="#163150" stroke-linecap="round" stroke-linejoin="round" stroke-width="2" d="M31 12.62v22.76A5.65 5.65 0 0 1 25.31 41H6.69A5.65 5.65 0 0 1 1 35.38V6.68A5.68 5.68 0 0 1 6.68 1h12.66a7.57 7.57 0 0 1 5.36 2.23l4.17 4.22A7.39 7.39 0 0 1 31 12.62z"/><path fill="#163150" d="M5 33.27a1.6 1.6 0 0 0 .85.29c.41 0 .53-.17.53-.55v-4.69h1.38v4.78c0 .95-.55 1.65-1.87 1.65a2.67 2.67 0 0 1-1.31-.27L5 33.27zm7.47-.27c0-1-2.91-.86-2.91-2.85a2 2 0 0 1 2.22-1.86 2.48 2.48 0 0 1 1.92.71l-.86 1a1.47 1.47 0 0 0-1.18-.59c-.45 0-.7.25-.7.57 0 1 2.9.86 2.9 2.87 0 .95-.78 1.86-2.39 1.86a3.06 3.06 0 0 1-2.19-.78l.78-1.13a2.3 2.3 0 0 0 1.58.76c.57 0 .83-.28.83-.56zm5.26 1.72c-1.58 0-2.57-.85-2.57-3.21s1.12-3.29 2.65-3.29c1.53 0 2.58.86 2.58 3.21s-1.12 3.29-2.66 3.29zm.08-1.14c.72 0 1.16-.51 1.16-2.07 0-1.56-.48-2.13-1.24-2.13s-1.15.49-1.15 2.05c0 1.56.42 2.15 1.23 2.15zM23.32 30c.072.734.102 1.472.09 2.21v2.39H22.1v-6.28h1.65L25 30.81c.335.628.632 1.276.89 1.94-.07-.88-.07-1.76-.07-2.42v-2h1.31v6.31h-1.55L24.2 32c-.32-.65-.6-1.317-.84-2h-.04z"/><path fill="#1EB8E7" d="M17 24h-2V14h2v10zm0-13h-2v2h2v-2zm-6 13h-.47A2.529 2.529 0 0 1 8 21.47v-2.06L6.79 18.2a1 1 0 0 1 0-1.41L8 15.59v-2.06A2.53 2.53 0 0 1 10.53 11H11a1 1 0 0 1 0 2h-.47a.53.53 0 0 0-.53.53V16a1 1 0 0 1-.29.71l-.79.79.79.79A1 1 0 0 1 10 19v2.47a.53.53 0 0 0 .53.53H11a1 1 0 0 1 0 2zm10 0h-.5a1 1 0 0 1 0-2h.5a.53.53 0 0 0 .53-.53V19a1 1 0 0 1 .29-.71l.79-.79-.79-.79a1 1 0 0 1-.32-.71v-2.47A.53.53 0 0 0 21 13h-.5a1 1 0 0 1 0-2h.5a2.53 2.53 0 0 1 2.53 2.53v2.05l1.21 1.21a1 1 0 0 1 0 1.41l-1.24 1.21v2.05A2.53 2.53 0 0 1 21 24z"/></svg>