<svg xmlns="http://www.w3.org/2000/svg" width="51" height="56" fill="none"><path fill="#1EB8E7" d="M25.199 7.14a20.364 20.364 0 1 0 .123 40.728A20.364 20.364 0 0 0 25.2 7.14zm0 33.726a13.35 13.35 0 0 1-13.35-13.362c.003-.486.032-.972.086-1.455l-1.75-1.17-2.083-5.203 4.166-6.237 6.238-2.083 3.87 3.106a13.363 13.363 0 0 1 16.185 13.042A13.362 13.362 0 0 1 25.2 40.866z"/><path stroke="#163150" stroke-linecap="round" stroke-linejoin="round" stroke-width="2.465" d="M25.2 47.867c11.246 0 20.363-9.117 20.363-20.363 0-11.247-9.117-20.364-20.364-20.364-11.246 0-20.363 9.117-20.363 20.364 0 11.246 9.117 20.363 20.363 20.363z"/><path fill="#FFD166" d="M30.475 28.022l-3.193-4.13a12.23 12.23 0 0 0 .654-10.157C25.126 6.13 15.264 1.26 7.178 7.572c-10.133 7.827-4.18 23.605 7.396 23.42a13.561 13.561 0 0 0 3.069-.431l3.328 4.487 3.698.444h.099l-.099.752-.394 3.02 1.96 2.539 3.784.48-.493 3.785 1.652 2.132 7.568.16 2.774-6.052-11.045-14.286zm-10.527-13.56L10.617 21.6c-4.77-6.175 4.56-13.374 9.331-7.198v.061z"/><path fill="#F1B64D" d="M30.006 34.259l-1.639 7.396-3.698-2.465v-3.698l-3.698-.444-3.328-4.487c-.997.246-2.018.379-3.045.394l-2.256-1.627 16.025-16.024 2.108 14.718.357 2.539-.826 3.698z"/><path stroke="#163150" stroke-linecap="round" stroke-linejoin="round" stroke-width="2.465" d="M41.52 42.32L27.282 23.893C33.446 11.997 18.58-1.316 7.178 7.51-3.806 15.99 4.12 33.827 17.643 30.56l3.328 4.488 3.834.444-.481 3.784 1.96 2.527 3.784.48-.48 3.785 1.651 2.132 7.569.16 2.712-6.04zM10.617 21.6c-4.77-6.164 4.56-13.375 9.319-7.2l-9.32 7.2z"/><path stroke="#fff" stroke-miterlimit="10" stroke-width="1.233" d="M29.994 34.666l6.693 7.433" opacity=".6"/><path stroke="#fff" stroke-miterlimit="10" stroke-width="1.233" d="M21.797 15.596l-10.589 8.185" opacity=".5"/><path fill="#1EB8E7" d="M19.948 45.094l-6.36-3.427 16.48-30.62 6.36 3.415-8.517 15.815-7.963 14.817z"/><path stroke="#163150" stroke-linecap="round" stroke-linejoin="round" stroke-width="2.465" d="M36.096 36.626a14.213 14.213 0 0 0-1.11-19.415m-.332.555L27.91 30.277l-5.707 10.601.123.543c1.82.356 3.69.356 5.51 0M11.862 31.46a14.213 14.213 0 0 0 3.698 5.831m.345-.567l6.73-12.511 5.732-10.602-.123-.542a14.4 14.4 0 0 0-1.43-.222"/><path stroke="#B5BFC7" stroke-linecap="round" stroke-linejoin="round" stroke-width="2.465" d="M49.138 16.065A26.601 26.601 0 0 0 32.532 2M12.157 50.616a26.379 26.379 0 0 0 11.686 3.365M2.863 41.827a26.651 26.651 0 0 0 3.612 4.475" opacity=".4"/></svg>