<svg xmlns="http://www.w3.org/2000/svg" width="44" height="40" fill="none"><path fill="#E3EDFF" d="M43 32.958v2.32c0 2.58-2.1 3.68-4.68 3.68H5.68c-2.58 0-4.68-1.1-4.68-3.68v-2.32h5v-18a4 4 0 0 1 4-4h26a4 4 0 0 1 4 4v18h3z"/><path fill="#CFDBEE" d="M40 14.958v18H6v-18a3.81 3.81 0 0 1 .41-1.74 4 4 0 0 1 3.59-2.26h26a4 4 0 0 1 4 4z"/><path fill="#BCC9DD" d="M37.29 32.958H13.11L8 27.808a4 4 0 0 1 2.8-6.85c.21-.015.42-.015.63 0l8.28 1.31-2.43-2.31a10 10 0 0 1-8.48-2.82 9.75 9.75 0 0 1-2.39-3.87 4 4 0 0 1 3.59-2.31h15.82v.47l8 8c3.86 3.91 5.18 8.95 3.47 13.53z"/><path stroke="#163150" stroke-linecap="round" stroke-linejoin="round" stroke-width="2" d="M40 32.958H6v-18a4 4 0 0 1 4-4h26a4 4 0 0 1 4 4v18zm3 2.32v-2.32H1v2.32c0 2.58 2.1 3.68 4.68 3.68h32.64c2.58 0 4.68-1.1 4.68-3.68z"/><path fill="#FFD166" stroke="#163150" stroke-linecap="round" stroke-linejoin="round" stroke-width="2" d="M30.9 19.218l-9.62-9.62a6 6 0 1 0-2.83 2.82l9.62 9.63c5.21 4.64-.63 10.92-5.78 5.77l-.89-.86 2.83-2.82-13.43-2.18 8.66 8.67c8.54 8.59 20.2-2.67 11.44-11.41zM17.28 8.428a1.91 1.91 0 0 1-1.28.53 2 2 0 0 1-1.54-3.39 2 2 0 0 1 2.82 0 2 2 0 0 1 .58 1.55 2 2 0 0 1-.58 1.31z"/><path stroke="#163150" stroke-linecap="round" stroke-linejoin="round" stroke-width="2" d="M23.52 28.808l-.16-.11"/></svg>