<svg xmlns="http://www.w3.org/2000/svg" width="48" height="58" fill="none"><path fill="#1EB8E7" d="M23.67 7.267a21.735 21.735 0 1 0 .13 43.47 21.735 21.735 0 0 0-.13-43.47zm0 36.84A15.157 15.157 0 0 1 8.512 29.001c0-2 1.434-15.156 15.156-15.156a15.159 15.159 0 0 1 16.05 15.13 15.156 15.156 0 0 1-16.05 15.13z"/><path fill="#007FC6" d="M27.05 17.793h3.948a13.157 13.157 0 0 1 0 26.313H27.05l9.21-13.157-9.21-13.156z"/><path stroke="#163150" stroke-linecap="round" stroke-linejoin="round" stroke-width="2.631" d="M45.47 29.002a21.735 21.735 0 1 0-43.469-.105 21.735 21.735 0 0 0 43.47.105z"/><path stroke="#163150" stroke-linecap="round" stroke-linejoin="round" stroke-width="2.631" d="M12.657 39.422a15.117 15.117 0 0 1-4.144-10.42c0-2 1.434-15.156 15.156-15.156 1.233 0 2.462.15 3.658.447"/><path fill="#fff" d="M27.893 42.79h-9.118v-8.814h9.118a5.483 5.483 0 0 0 1.315-.171 3.75 3.75 0 0 0 2.632-4.987 3.947 3.947 0 0 0-3.947-2.5h-6.105v7.263l-1.316-.947L7.315 21.74l14.473-11.683v7.446h6.052a13.35 13.35 0 0 1 1.645.093 11.473 11.473 0 0 1 6.775 2.973c7.276 6.736 4.487 22.222-8.367 22.222z"/><path fill="#CFDBEE" d="M29.26 33.805l-3.525 8.986h-6.96v-7.263l.934-1.552h8.184c.461 0 .92-.057 1.368-.171zm.277-16.21l-5.262 8.723h3.591a3.947 3.947 0 0 1 3.947 2.5l4.447-8.25a11.473 11.473 0 0 0-6.723-2.973z"/><path fill="#B5BFC7" stroke="#163150" stroke-linecap="round" stroke-linejoin="round" stroke-width="2.631" d="M27.893 42.79h-9.118v-8.815h9.118a3.84 3.84 0 0 0 3.9-5.381 3.842 3.842 0 0 0-3.9-2.263h-6.105v7.25L7.315 21.74l14.473-11.67v7.433h6.052c16.472 0 16.472 25.288.053 25.288z"/><path fill="#1EB8E7" d="M18.065 47.777l-6.79-3.658 8.579-15.933 9.012-16.748 6.79 3.644-9.092 16.88-8.5 15.815z"/><path stroke="#163150" stroke-linecap="round" stroke-linejoin="round" stroke-width="2.631" d="M13.38 40.212l6.474-12.025 7.473-13.894m6.618 3.974l-7.381 13.696-6.079 11.315"/><path stroke="#B5BFC7" stroke-linecap="round" stroke-linejoin="round" stroke-width="2.631" d="M34.182 4.123a27.05 27.05 0 0 0-22.92.894m35.05 9.276a27.158 27.158 0 0 0-5.263-5.92m-20.695 47.43a26.879 26.879 0 0 0 17.275-3.75" opacity=".4"/></svg>