<svg xmlns="http://www.w3.org/2000/svg" xmlns:xlink="http://www.w3.org/1999/xlink" width="562" height="871"><title>Artboard</title><defs><circle id="a" cx="145" cy="145" r="145"/><path id="b" d="M188.616 161.046a9.968 9.968 0 0 0-7.137 2.992l-18.955 19.133a23.895 23.895 0 0 1-17.001 7.099 23.895 23.895 0 0 1-17.001-7.099l-18.91-19.178a9.968 9.968 0 0 0-7.137-2.993 9.968 9.968 0 0 0-7.182 2.993c-7.057 7.176-7.057 18.667 0 25.843l37.41 37.814a17.796 17.796 0 0 0 12.729 5.35 17.796 17.796 0 0 0 12.728-5.35l37.547-37.814c7.057-7.176 7.057-18.667 0-25.843a9.968 9.968 0 0 0-7.091-2.947z"/><path id="c" d="M199.199 68.95A16.741 16.741 0 0 0 187.256 64a17.47 17.47 0 0 0-12.443 5.22l-29.699 29.75-29.154-29.3a16.746 16.746 0 0 0-11.988-4.725 17.47 17.47 0 0 0-12.443 5.22l-36.329 36.5a17.44 17.44 0 0 0-.272 24.573c3.78 3.683 9.842 3.683 13.623 0l18.437-18.452a23.446 23.446 0 0 1 16.711-6.976 22.808 22.808 0 0 1 16.167 6.706l18.164 18.002a9.11 9.11 0 0 0 5.086 2.61 9.82 9.82 0 0 0 8.81-2.7l18.437-18.452A23.446 23.446 0 0 1 187.074 105a22.808 22.808 0 0 1 16.166 6.706l18.165 18.002a9.123 9.123 0 0 0 6.63 2.745 9.76 9.76 0 0 0 6.948-2.925 17.44 17.44 0 0 0-.091-24.573L199.199 68.95z"/></defs><g fill="none"><path fill="#FFCE00" d="M319.29 400.47h46.5v10.5h-46.5z"/><path fill="#8B572A" d="M502.94 426v145.19h-.86a7.5 7.5 0 0 0-7.5 7.5v2.83h-48a19.63 19.63 0 0 1-2.86-2.82c-1.87-2.34-3.29-5.82-4.8-9.5-2.41-5.88-5.13-12.54-10.84-17.1-5.71-4.56-12.76-5.71-19-6.75-3.94-.66-7.66-1.28-10.39-2.59-2.73-1.31-5.37-3.76-8.28-6.39-4.75-4.29-10.13-9.16-17.36-10.8-7-1.59-13.81.41-19.84 2.17-3.89 1.14-7.57 2.22-10.7 2.22-3.13 0-6.81-1.08-10.71-2.22-6-1.76-12.86-3.76-19.83-2.17-7.23 1.64-12.62 6.51-17.36 10.8-2.91 2.63-5.66 5.12-8.28 6.39-2.62 1.27-6.46 1.93-10.4 2.59-6.25 1-13.33 2.22-19 6.75-5.67 4.53-8.43 11.22-10.84 17.1-1.5 3.68-2.93 7.16-4.8 9.51a19.63 19.63 0 0 1-2.86 2.81h-48v-2.83a7.5 7.5 0 0 0-7.5-7.5h-.86V426h320.87zM484 551.38a7.51 7.51 0 0 0-5.71-13.89L452.93 548a7.5 7.5 0 0 0 2.87 14.4 7.65 7.65 0 0 0 2.87-.57L484 551.38zm-34.63-45.75a7.5 7.5 0 1 0-10.43-10.78l-.18.18L426 507.77a7.502 7.502 0 1 0 10.61 10.61l12.76-12.75zm-42.49-39.48a7.516 7.516 0 1 0-13.88-5.77l-10.48 25.32a7.5 7.5 0 0 0 4.06 9.8 7.64 7.64 0 0 0 2.86.57 7.51 7.51 0 0 0 6.94-4.63l10.5-25.29zM350 475.5v-18a7.5 7.5 0 1 0-15 0v18a7.5 7.5 0 1 0 15 0zm-51.54 20a7.52 7.52 0 0 0 4.06-9.8l-10.49-25.32a7.5 7.5 0 1 0-13.86 5.74l10.49 25.32a7.49 7.49 0 0 0 6.93 4.63 7.65 7.65 0 0 0 2.87-.57zm-39.45 22.88a7.49 7.49 0 0 0 0-10.59L246.28 495a7.5 7.5 0 1 0-10.79 10.42l.18.18 12.77 12.78a7.5 7.5 0 0 0 10.61 0h-.04zm-22.84 39.4a7.51 7.51 0 0 0-4.06-9.8l-25.32-10.49a7.515 7.515 0 1 0-5.74 13.89l25.32 10.49a7.64 7.64 0 0 0 2.87.51 7.51 7.51 0 0 0 6.97-4.6h-.04zm258.41 72.39v110.21A66 66 0 0 0 468.2 786H216.88a66 66 0 0 0-26.38-45.57V630.17h108.56v43.11a7.5 7.5 0 0 0 7.5 7.5h72a7.5 7.5 0 0 0 7.5-7.5v-43.11h108.52z"/><path fill="#FFCE00" d="M342.54 624a7.41 7.41 0 1 1-.02 14.82 7.41 7.41 0 0 1 .02-14.82z"/><path fill="#DFDFE3" d="M371 597v68.82h-56.94V597H371zm-6 34.38c.006-12.382-10.028-22.424-22.41-22.43-12.382-.006-22.424 10.028-22.43 22.41-.006 12.382 10.028 22.424 22.41 22.43 12.378-.006 22.413-10.032 22.43-22.41z"/><path fill="#FFCE00" d="M175.5 586.19v145.87a65.49 65.49 0 0 0-16.68-4.17v-141.7h16.68zm123.56 10.33v18.65H190.5v-18.65h2.03zm86.95 0h108.57v18.65H386.01zm140.27-10.33v141.7a65.28 65.28 0 0 0-16.68 4.17V586.19h16.68zm0 156.81v43h-43c3.32-22.229 20.771-39.68 43-43zm-324.52 43h-42.94v-43c22.204 3.347 39.624 20.791 42.94 43z"/><path fill="#FFA21A" d="M428 581.52H257.09c1.08-2.19 2-4.43 2.91-6.64 1.88-4.6 3.65-8.94 6.31-11.06 2.66-2.12 7.23-2.86 12.11-3.67 4.88-.81 9.79-1.63 14.46-3.88 4.67-2.25 8.25-5.55 11.82-8.77 3.57-3.22 7.22-6.53 10.62-7.31 3.17-.72 7.61.58 12.3 1.95 4.52 1.32 9.64 2.82 14.92 2.82 5.28 0 10.4-1.5 14.92-2.82 4.69-1.37 9.12-2.67 12.3-1.94 3.4.77 6.9 3.94 10.61 7.3 3.71 3.36 7.26 6.56 11.83 8.77s9.64 3.07 14.45 3.88c4.81.81 9.49 1.57 12.12 3.67 2.63 2.1 4.43 6.46 6.3 11 .93 2.26 1.83 4.56 2.93 6.7z"/><path fill="#000" d="M541.28 578.69v214.76a7.5 7.5 0 0 1-7.5 7.5h-382.5a7.5 7.5 0 0 1-7.5-7.5V578.69a7.5 7.5 0 0 1 7.5-7.5h15.82V418.47a7.5 7.5 0 0 1 7.5-7.5h129.68V393a7.5 7.5 0 0 1 7.5-7.5h61.5a7.5 7.5 0 0 1 7.5 7.5v18h129.66a7.5 7.5 0 0 1 7.5 7.5v152.69h15.82a7.5 7.5 0 0 1 7.52 7.48v.02zm-15 207.31v-43c-22.21 3.313-39.656 20.735-43 42.94l43 .06zm0-58.06V586.19h-16.7v145.87a65.28 65.28 0 0 1 16.7-4.17v.05zM503 571.19V426H182.14v145.19h.86a7.5 7.5 0 0 1 7.5 7.5v2.83h48a19.63 19.63 0 0 0 2.86-2.81c1.87-2.35 3.3-5.83 4.8-9.51 2.41-5.88 5.13-12.54 10.84-17.1 5.71-4.56 12.76-5.71 19-6.75 3.94-.66 7.67-1.28 10.4-2.59 2.73-1.31 5.37-3.76 8.28-6.39 4.74-4.29 10.13-9.16 17.36-10.8 7-1.59 13.8.41 19.83 2.17 3.9 1.14 7.58 2.22 10.71 2.22 3.13 0 6.81-1.08 10.7-2.22 6-1.76 12.87-3.76 19.84-2.17 7.23 1.64 12.61 6.51 17.36 10.8 2.91 2.63 5.65 5.12 8.28 6.39 2.63 1.27 6.45 1.93 10.39 2.59 6.25 1 13.34 2.22 19 6.75 5.66 4.53 8.43 11.22 10.84 17.1 1.51 3.68 2.93 7.16 4.8 9.5a19.64 19.64 0 0 0 2.86 2.82h48v-2.83a7.5 7.5 0 0 1 7.5-7.5h.85zm-8.38 169.19V630.17H386v43.11a7.5 7.5 0 0 1-7.5 7.5h-71.94a7.5 7.5 0 0 1-7.5-7.5v-43.11H190.5v110.21A66 66 0 0 1 216.88 786H468.2a66 66 0 0 1 26.38-45.62h.04zm0-125.21v-18.65H386v18.65h108.62zm-237.53-33.65H428c-1.08-2.19-2-4.44-2.91-6.65-1.87-4.59-3.65-8.93-6.3-11-2.65-2.07-7.24-2.86-12.12-3.67-4.88-.81-9.79-1.63-14.45-3.88s-8.26-5.55-11.83-8.77c-3.57-3.22-7.21-6.53-10.61-7.3-3.18-.73-7.61.57-12.3 1.94-4.52 1.32-9.64 2.82-14.92 2.82-5.28 0-10.4-1.5-14.92-2.82-4.69-1.37-9.13-2.67-12.3-1.95-3.4.78-6.91 3.95-10.62 7.31-3.71 3.36-7.26 6.56-11.82 8.77-4.56 2.21-9.65 3.07-14.46 3.88-4.81.81-9.48 1.57-12.11 3.67-2.63 2.1-4.43 6.46-6.31 11.06-.93 2.16-1.85 4.45-2.93 6.59zM371 665.78V597h-56.94v68.82l56.94-.04zM365.79 411v-10.5h-46.51V411h46.51zm-66.73 204.2v-18.68H190.5v18.65l108.56.03zM183 786h18.76c-3.316-22.209-20.736-39.653-42.94-43v43H183zm-7.5-53.89V586.19h-16.68v141.7a65.49 65.49 0 0 1 16.68 4.17v.05z"/><path fill="#FFA21A" d="M455.8 568.38a13.5 13.5 0 0 1-5.16-26L476 531.89c6.848-2.615 14.532.698 17.332 7.473 2.799 6.774-.306 14.546-7.002 17.527L461 567.38a13.68 13.68 0 0 1-5.2 1z"/><path fill="#000" d="M481.12 536.92a7.5 7.5 0 0 1 2.88 14.46l-25.32 10.49a7.65 7.65 0 0 1-2.87.57 7.5 7.5 0 0 1-2.88-14.44l25.35-10.52a7.47 7.47 0 0 1 2.87-.58l-.03.02zm.03-12.02a19.39 19.39 0 0 0-7.47 1.49l-25.31 10.49c-9.467 4.38-13.803 15.44-9.837 25.086 3.966 9.648 14.827 14.459 24.637 10.914l25.32-10.49a19.5 19.5 0 0 0-7.49-37.46l.15-.03z"/><path fill="#FFA21A" d="M431.28 526.54a13.51 13.51 0 0 1-9.55-23l12.73-12.74c5.194-5.349 13.741-5.474 19.09-.28s5.474 13.741.28 19.09l-.27.27-12.69 12.7a13.41 13.41 0 0 1-9.59 3.96z"/><path fill="#000" d="M444.06 492.8a7.5 7.5 0 0 1 5.3 12.81l-12.73 12.77a7.506 7.506 0 0 1-10.63-10.6L438.75 495a7.47 7.47 0 0 1 5.31-2.21v.01zm0-12.01a19.37 19.37 0 0 0-13.78 5.7l-12.72 12.73c-7.451 7.643-7.373 19.857.177 27.403 7.549 7.547 19.763 7.621 27.403.167l12.73-12.74a19.5 19.5 0 0 0-13.79-33.29l-.02.03z"/><path fill="#FFA21A" d="M389.44 502.07A13.51 13.51 0 0 1 377 483.39l10.49-25.31a13.523 13.523 0 1 1 25 10.32L402 493.73a13.48 13.48 0 0 1-12.56 8.34z"/><path fill="#000" d="M399.93 455.75a7.51 7.51 0 0 1 6.93 10.38l-10.48 25.31a7.51 7.51 0 0 1-6.94 4.63 7.64 7.64 0 0 1-2.86-.57 7.5 7.5 0 0 1-4.06-9.8L393 460.38a7.49 7.49 0 0 1 6.93-4.64v.01zm0-12.01a19.43 19.43 0 0 0-18 12.06l-10.48 25.3A19.5 19.5 0 0 0 382 506.58h.1c9.933 4.06 21.28-.668 25.39-10.58L418 470.67a19.51 19.51 0 0 0-18-27l-.07.07zM342.54 609c12.374.006 22.402 10.04 22.4 22.413-.002 12.374-10.033 22.405-22.407 22.407-12.374.002-22.407-10.026-22.413-22.4A22.41 22.41 0 0 1 342.54 609zm7.46 22.38a7.42 7.42 0 1 0-14.84-.02 7.42 7.42 0 0 0 14.84.02z"/><path fill="#FFA21A" d="M342.54 489c-7.451-.011-13.489-6.049-13.5-13.5v-18c0-7.456 6.044-13.5 13.5-13.5s13.5 6.044 13.5 13.5v18c-.011 7.451-6.049 13.489-13.5 13.5z"/><path fill="#000" d="M342.54 450a7.5 7.5 0 0 1 7.5 7.5v18a7.5 7.5 0 1 1-15 0v-18a7.49 7.49 0 0 1 7.48-7.5h.02zm-.02-12c-10.765.011-19.489 8.735-19.5 19.5v18c0 10.77 8.73 19.5 19.5 19.5s19.5-8.73 19.5-19.5v-18c-.011-10.757-8.723-19.478-19.48-19.5h-.02z"/><path fill="#FFA21A" d="M295.63 502.07a13.45 13.45 0 0 1-12.48-8.35l-10.49-25.34a13.5 13.5 0 1 1 24.83-10.6l.11.26 10.5 25.34c2.824 6.881-.437 14.752-7.3 17.62a13.68 13.68 0 0 1-5.17 1.07z"/><path fill="#000" d="M285.13 455.75a7.51 7.51 0 0 1 6.93 4.64l10.49 25.32a7.52 7.52 0 0 1-4.06 9.8 7.65 7.65 0 0 1-2.87.57 7.49 7.49 0 0 1-6.93-4.63l-10.49-25.32a7.51 7.51 0 0 1 6.93-10.38zm0-12a19.5 19.5 0 0 0-18 27l10.49 25.31c4.107 9.91 15.447 14.642 25.38 10.59h.12c9.923-4.143 14.634-15.526 10.54-25.47l-10.49-25.33a19.46 19.46 0 0 0-18-12l-.04-.1z"/><path fill="#FFA21A" d="M253.75 526.54a13.46 13.46 0 0 1-9.54-3.94l-12.75-12.76a13.5 13.5 0 1 1 18.83-19.35l.27.27 12.72 12.74a13.5 13.5 0 0 1-9.54 23l.01.04z"/><path fill="#000" d="M241 492.8a7.49 7.49 0 0 1 5.31 2.2l12.73 12.74a7.513 7.513 0 0 1-10.61 10.64l-12.73-12.74a7.5 7.5 0 0 1 5.3-12.8v-.04zm0-11.96a19.5 19.5 0 0 0-13.79 33.29L240 526.87c7.517 7.713 19.862 7.872 27.575.355 7.713-7.517 7.872-19.862.355-27.575l-.35-.35-12.78-12.74a19.39 19.39 0 0 0-13.8-5.72z"/><path fill="#FFA21A" d="M229.28 568.38a13.59 13.59 0 0 1-5.11-1l-25.37-10.51a13.5 13.5 0 1 1 10.08-25l.26.11 25.32 10.49a13.5 13.5 0 0 1-5.18 26v-.09z"/><path fill="#000" d="M204 536.92c.986.002 1.96.2 2.87.58l25.27 10.5a7.5 7.5 0 0 1-2.86 14.39 7.64 7.64 0 0 1-2.86-.57l-25.33-10.43a7.5 7.5 0 0 1 2.91-14.45v-.02zm0-11.98a19.5 19.5 0 0 0-7.47 37.52L221.82 573c9.917 3.907 21.133-.873 25.184-10.732 4.051-9.86-.565-21.144-10.364-25.338l-25.22-10.5a19.38 19.38 0 0 0-7.47-1.49h.05z"/><path fill="#4D3325" d="M210.54 693.38h64a10.67 10.67 0 0 0 0-21.33h-64c-5.878-.161-10.779 4.463-10.958 10.341-.179 5.877 4.431 10.792 10.308 10.989h.65zm60.59 49.35h64a10.67 10.67 0 0 0 0-21.33h-64a10.67 10.67 0 1 0-.65 21.33h.65zm134.56-30.24h64c5.878.161 10.779-4.463 10.958-10.341.179-5.877-4.431-10.792-10.308-10.989h-64.65c-5.878-.161-10.779 4.463-10.958 10.341-.179 5.877 4.431 10.792 10.308 10.989h.65zM363 788.82h64c5.878.161 10.779-4.463 10.958-10.341.179-5.877-4.431-10.792-10.308-10.989H363c-5.878-.161-10.779 4.463-10.958 10.341-.179 5.877 4.431 10.792 10.308 10.989h.65z" opacity=".5"/><path fill="#000" d="M190.59 648.91l-81.76-28.86a4.81 4.81 0 0 0-3.2 0l-81.76 28.86a4.82 4.82 0 0 0-3.21 4.54v57.71c0 74.68 11.07 102 84.4 139a4.79 4.79 0 0 0 4.33 0c73.33-37 84.4-64.27 84.4-139v-57.71a4.82 4.82 0 0 0-3.2-4.54z"/><path fill="#81CC3B" d="M107.23 632.92L35 656.85l-2.08 54.31c0 8.7.14 16.66.49 24h73.81l.01-102.24z"/><path fill="#7BBA38" d="M183.68 735.2c.36-7.38.5-15.34.5-24L182 656.89l-74.8-25V735.2h76.48z"/><path fill="#81CC3B" d="M107.23 733.05v103.07c59.57-30.37 73.85-49.8 76.45-103.07h-76.45z"/><path fill="#7BBA38" d="M32.94 733.05c2.59 53.27 14.72 72.7 74.29 103.07V733.05H32.94z"/><path fill="#000" d="M107.23 819.62C39.4 785 30.28 771.5 30.28 700v9c0 71.53 9.12 94.69 77 129.27 67.83-34.58 77-57.73 77-129.27v-9c-.1 71.5-9.22 85-77.05 119.62z" opacity=".1"/><path fill="#000" d="M78.38 706.38a28.79 28.79 0 0 0 10.44 22.19l-5.58 39.66a4.81 4.81 0 0 0 4.76 5.48h38.5a4.81 4.81 0 0 0 4.76-5.48l-5.58-39.66c10.29-8.56 13.341-23.072 7.37-35.05-5.972-11.98-19.398-18.278-32.426-15.213-13.03 3.065-22.239 14.689-22.244 28.073z"/><path fill="#DFDFE3" d="M126.5 706.38a19.23 19.23 0 0 1-8.63 16 4.82 4.82 0 0 0-2.1 4.68l5.2 37H93.5l5.2-37a4.82 4.82 0 0 0-2.1-4.68 19.23 19.23 0 1 1 29.9-16z"/><path fill="#000" d="M102.77 764.06l4.78-34a4.82 4.82 0 0 0-2.1-4.68 19.23 19.23 0 0 1 10.6-35.27c.59 0 1.15.12 1.73.17-8.864-5.84-20.785-3.39-26.625 5.475-5.84 8.864-3.39 20.785 5.475 26.625a4.82 4.82 0 0 1 2.1 4.68l-5.2 37h9.24z" opacity=".1"/><g transform="translate(136 20)"><use fill="#0E97C0" fill-rule="evenodd" xlink:href="#a"/><circle cx="145" cy="145" r="140" stroke="#000" stroke-width="10"/></g><g transform="translate(136 20)"><use fill="#FFF" fill-rule="evenodd" xlink:href="#b"/><path stroke="#000" stroke-width="8" d="M188.616 157.046a13.977 13.977 0 0 1 9.943 4.142c8.588 8.733 8.588 22.72-.014 31.467l-37.525 37.791A21.795 21.795 0 0 1 145.433 237a21.782 21.782 0 0 1-15.573-6.537l-37.419-37.822c-8.588-8.733-8.588-22.72-.006-31.447A13.95 13.95 0 0 1 102.47 157a13.96 13.96 0 0 1 9.99 4.184l18.908 19.177a19.895 19.895 0 0 0 14.155 5.909c5.322 0 10.421-2.13 14.159-5.914l18.939-19.116a13.968 13.968 0 0 1 9.995-4.194z"/></g><g transform="translate(136 20)"><use fill="#FFF" fill-rule="evenodd" xlink:href="#c"/><path stroke="#000" stroke-width="8" d="M202.04 66.136l35.685 35.996c8.323 8.353 8.373 21.785.116 30.194a13.742 13.742 0 0 1-9.763 4.127c-3.589.039-7.037-1.39-9.489-3.904l-18.185-18.023A18.808 18.808 0 0 0 187.073 109a19.463 19.463 0 0 0-13.88 5.803l-18.433 18.448a13.82 13.82 0 0 1-12.333 3.818 13.067 13.067 0 0 1-7.213-3.71l-18.184-18.022a18.808 18.808 0 0 0-13.332-5.527 19.463 19.463 0 0 0-13.88 5.803l-18.476 18.49c-5.334 5.196-13.87 5.196-19.205 0l-.084-.083c-8.2-8.474-8.05-21.906.312-30.177l36.309-36.479a21.427 21.427 0 0 1 15.223-6.418 20.781 20.781 0 0 1 14.899 5.903l26.323 26.454 26.839-26.884A21.467 21.467 0 0 1 187.245 60a20.741 20.741 0 0 1 14.795 6.136z"/></g></g></svg>