<svg xmlns="http://www.w3.org/2000/svg" xmlns:xlink="http://www.w3.org/1999/xlink" width="553" height="473"><title>Artboard</title><defs><path id="a" d="M48.764 41.011c-.701 0-1.374.27-1.864.748l-4.952 4.784a6.387 6.387 0 0 1-4.442 1.774c-1.67 0-3.27-.639-4.442-1.774l-4.94-4.795A2.664 2.664 0 0 0 26.259 41a2.664 2.664 0 0 0-1.876.748 4.465 4.465 0 0 0 0 6.461l9.774 9.453A4.755 4.755 0 0 0 37.482 59a4.755 4.755 0 0 0 3.325-1.338l9.81-9.453a4.465 4.465 0 0 0 0-6.46 2.665 2.665 0 0 0-1.853-.738z"/><path id="b" d="M50.692 17.273A4.192 4.192 0 0 0 47.675 16a4.375 4.375 0 0 0-3.143 1.342l-7.503 7.65-7.365-7.534a4.19 4.19 0 0 0-3.029-1.215 4.375 4.375 0 0 0-3.143 1.342l-9.178 9.386a4.542 4.542 0 0 0-.07 6.319 2.44 2.44 0 0 0 3.443 0l4.657-4.745a5.872 5.872 0 0 1 4.222-1.794c1.535 0 3.007.622 4.084 1.724l4.59 4.63c.344.357.795.593 1.284.67a2.453 2.453 0 0 0 2.226-.694l4.657-4.744a5.872 5.872 0 0 1 4.222-1.794c1.535 0 3.007.621 4.084 1.724l4.59 4.63a2.285 2.285 0 0 0 1.674.705 2.445 2.445 0 0 0 1.755-.752 4.542 4.542 0 0 0-.022-6.319l-9.018-9.258z"/></defs><g fill="none"><path fill="#DFDFE3" d="M28.72 28.52h448v400h-448z"/><path fill="#FFA21A" d="M508.72 284.52h16v-32h-16v-32h-144v32h16v32h-16v16a72 72 0 1 0 16 142.19v1.81h144v-32h-16v-32h16v-32h-16v-64z"/><path fill="#A1ABB8" d="M286.34 388.52H68.72v-48h24v-80h-24v-64h24v-80h-24v-48h368v144h-32v-64h16v-16h-32v80h-17.13c-7.7-58.8-58-104.38-118.86-104.38-47.6-.115-90.769 27.917-110.028 71.448-19.26 43.53-10.968 94.329 21.132 129.477 32.101 35.147 81.942 47.999 127.036 32.755a79.84 79.84 0 0 0-4.53 46.7z"/><path fill="#7D8694" d="M308.21 315.95c-47.121 29.926-109.442 17.539-141.537-28.133-32.095-45.672-22.632-108.503 21.49-142.697 44.122-34.193 107.327-27.676 143.545 14.8 36.217 42.477 32.66 105.918-8.078 144.08"/><path fill="#000" d="M84.72 84.52h16v16h-16zm320 0h16v16h-16zm-320 272h16v16h-16zm160-64h16v24h-16zm0-152h16v24h-16zm-80 80h24v16h-24zm152 0h24v16h-24zm-24.435 58.89l11.303-11.31 16.977 16.964-11.303 11.31zM184.819 171.912l11.302-11.31 16.977 16.964-11.303 11.31zm.029 113.19l16.973-16.967 11.305 11.308-16.974 16.968zM292.313 177.61l16.974-16.967 11.304 11.308-16.973 16.968zm7.757 44.27l14.78-15.32-21.12-2.63c-12.649-21.16-39.271-29.298-61.59-18.826-22.318 10.472-33.074 36.148-24.884 59.4 8.19 23.253 32.663 36.52 56.618 30.694 23.954-5.826 39.6-28.851 36.196-53.268v-.05zm-47.34 43.8c-20.523 0-37.16-16.637-37.16-37.16 0-20.523 16.637-37.16 37.16-37.16 20.523 0 37.16 16.637 37.16 37.16a37.16 37.16 0 0 1-37.17 37.16h.01z"/><path fill="#FFF" d="M364.72 324.52c-26.51 0-48 21.49-48 48s21.49 48 48 48 48-21.49 48-48-21.49-48-48-48zm0 90.19c-23.3 0-42.19-18.89-42.19-42.19 0-23.3 18.89-42.19 42.19-42.19 23.3 0 42.19 18.89 42.19 42.19-.022 23.292-18.898 42.168-42.19 42.19z"/><path fill="#000" d="M516.72 308.52v-16h16v-48h-16v-32h-32v-192h-464v416h72v16h72v-16h152.21a79.28 79.28 0 0 0 55.79 15.59v.41h160v-48h-16v-16h16v-48h-16v-32zm-16-80v16h-128v-16h128zm-57.62 160h57.62v16H438a78.74 78.74 0 0 0 5.11-16h-.01zm-14.54-64h72.15v16H438a79.93 79.93 0 0 0-9.43-16h-.01zm-7.85-16h-8.21a79.43 79.43 0 0 0-39.79-15.59v-.41h128v16h-80zm-112.51 7.43c-47.131 29.91-109.447 17.5-141.526-28.181-32.079-45.682-22.597-108.51 21.536-142.688 44.133-34.18 107.335-27.644 143.539 14.843 36.204 42.487 32.63 105.925-8.119 144.076a80.34 80.34 0 0 0-15.42 11.95h-.01zm-21.87 72.57H68.72v-48h24v-80h-24v-64h24v-80h-24v-48h368v144h-32v-64h16v-16h-32v80h-17.13c-7.7-58.8-58-104.38-118.86-104.38-47.6-.115-90.769 27.917-110.028 71.448-19.26 43.53-10.968 94.329 21.132 129.477 32.101 35.147 81.942 47.999 127.036 32.755a79.84 79.84 0 0 0-4.53 46.7h-.01zm-209.62-112v48h-16v-48h16zm0-144v48h-16v-48h16zm296 128v16h-10.26a119.82 119.82 0 0 0 5.71-16h4.55zm-16 27.24v5.17c-1.17.12-2.3.34-3.46.51 1.22-1.86 2.37-3.76 3.47-5.68h-.01zm-264 132.76h-56v-384h432v176h-16v-160h-400v64h-8v80h8v64h-8v80h8v64h238.74a79.93 79.93 0 0 0 9.42 16H92.71zm208-48a63.7 63.7 0 0 1 17.74-44.1 120.92 120.92 0 0 0 14.78-11.55c22.745-12.965 51.11-10.675 71.48 5.77v1.88h2.19c22.185 19.45 28.2 51.545 14.563 77.707-13.638 26.163-43.393 39.613-72.042 32.565-28.65-7.049-48.769-32.768-48.711-62.272zm216 64h-104.2a80.46 80.46 0 0 0 16-16h88.16l.04 16zm0-64h-72a79.87 79.87 0 0 0-1.62-16h73.62v16zm-128-96v-16h128v16h-128z"/><path fill="#FFCE00" d="M60.72 132.52h16v48h-16zm0 144h16v48h-16z"/><g transform="translate(216 191)"><circle cx="37" cy="37" r="37" fill="#0E97C0"/><use fill="#FFF" fill-rule="evenodd" xlink:href="#a"/><path stroke="#000" stroke-width="2" d="M48.764 40.011c.954 0 1.87.364 2.55 1.02 2.248 2.187 2.248 5.708-.003 7.898l-9.804 9.448A5.755 5.755 0 0 1 37.482 60a5.752 5.752 0 0 1-4.02-1.619l-9.777-9.455a5.464 5.464 0 0 1-.001-7.893A3.66 3.66 0 0 1 26.258 40a3.661 3.661 0 0 1 2.562 1.03l4.94 4.795a5.387 5.387 0 0 0 3.746 1.492 5.388 5.388 0 0 0 3.747-1.493l4.948-4.78a3.663 3.663 0 0 1 2.563-1.033z"/><use fill="#FFF" fill-rule="evenodd" xlink:href="#b"/><path stroke="#000" stroke-width="2" d="M51.409 16.576l9.015 9.256a5.541 5.541 0 0 1 .03 7.711 3.44 3.44 0 0 1-2.466 1.06 3.275 3.275 0 0 1-2.396-1.003l-4.594-4.634a4.711 4.711 0 0 0-3.37-1.423c-1.317 0-2.58.536-3.507 1.494l-4.657 4.744a3.436 3.436 0 0 1-3.098.982 3.278 3.278 0 0 1-1.837-.954l-4.594-4.635a4.711 4.711 0 0 0-3.37-1.423c-1.317 0-2.58.536-3.507 1.494L18.391 34a3.446 3.446 0 0 1-4.87-.021c-2.06-2.166-2.023-5.593.078-7.707l9.173-9.38a5.365 5.365 0 0 1 3.844-1.649 5.2 5.2 0 0 1 3.763 1.516l6.651 6.804 6.782-6.915A5.375 5.375 0 0 1 47.672 15a5.192 5.192 0 0 1 3.737 1.576z"/></g></g></svg>