<svg xmlns="http://www.w3.org/2000/svg" width="393" height="642"><path d="M196.5 0c3.1 0 6.1 1.7 7.5 4.5l53.5 89.1c.8 1.4 1.4 2.8 1.4 4.5 0 1.4-.3 3.1-1.1 4.5-1.7 2.8-4.5 4.5-7.8 4.5h-35.6v238.7c39.6-25.3 106.9-40.5 106.9-69.6v-26.7h-26.8c-5 0-8.9-3.9-8.9-8.9v-89.1c0-5 3.9-8.9 8.9-8.9h89.1c5 0 8.9 3.9 8.9 8.9v89.1c0 5-3.9 8.9-8.9 8.9h-26.7v26.7c0 75.4-142.5 81.1-142.5 124.7v100.3c30.6 8.1 53.5 35.9 53.5 69-.1 39.3-32.1 71.3-71.4 71.3-39.3 0-71.3-32-71.3-71.3 0-33.1 22.8-61 53.5-69 0-39.1 9.5-43.9-60.4-74.6-89.1-40.1-82.1-58.1-82.1-108.9-20.9-7.5-35.6-27-35.6-50.4 0-29.5 23.9-53.5 53.5-53.5s53.5 23.9 53.5 53.5c0 23.4-14.8 42.9-35.6 50.4v29.8c0 29.1 67.4 44.3 106.9 69.6V107h-35.6c-3.3 0-6.1-1.7-7.8-4.5-1.7-2.8-1.4-6.4.3-8.9l53.5-89.1c1.1-2.8 4.1-4.5 7.2-4.5z"/></svg>