<svg xmlns="http://www.w3.org/2000/svg" width="469" height="469" fill="none"><circle cx="234.5" cy="234.5" r="234.5" fill="#3375BB"/><path fill="#fff" fill-rule="evenodd" d="M227.275 79.313a11.001 11.001 0 0 1 13.496 0c45.788 35.571 98.085 35.28 117.745 35.171.988-.006 1.893-.011 2.711-.011 2.947 0 5.77 1.182 7.837 3.281a10.98 10.98 0 0 1 3.156 7.884c-.923 56.896-3.375 98.203-8.135 129.07-4.762 30.885-11.954 52.176-22.931 68.457-11.053 16.393-25.271 26.681-41.847 36.627-5.517 3.311-11.209 6.542-17.194 9.939-12.392 7.033-26.039 14.779-41.985 25.419a10.997 10.997 0 0 1-12.21 0c-15.923-10.624-29.545-18.361-41.911-25.384-6.004-3.411-11.713-6.653-17.245-9.976-16.562-9.949-30.759-20.239-41.789-36.634-10.953-16.282-18.12-37.573-22.865-68.454-4.743-30.864-7.184-72.169-8.107-129.064a10.983 10.983 0 0 1 3.156-7.884 10.997 10.997 0 0 1 7.837-3.281c.809 0 1.705.005 2.684.011 19.504.109 71.805.402 117.597-35.171zm-109.083 57.146c1.049 50.818 3.444 87.543 7.649 114.908 4.505 29.315 10.968 47.026 19.381 59.531 8.336 12.391 19.24 20.673 34.868 30.06 4.77 2.865 10.071 5.879 15.841 9.159 11.112 6.317 23.96 13.622 38.092 22.752 14.16-9.148 27.032-16.461 38.165-22.786 5.751-3.267 11.038-6.27 15.799-9.127 15.647-9.39 26.574-17.674 34.931-30.068 8.432-12.505 14.915-30.215 19.435-59.527 4.22-27.363 6.626-64.085 7.676-114.902-23.901-.277-71.779-3.692-116.006-34.809-44.183 31.085-92.004 34.526-115.831 34.809z" clip-rule="evenodd"/><path fill="#fff" d="M179.576 222.048h-11.783V254h-9.464v-31.952h-11.568v-7.308h32.815v7.308zm18.605 18.093h-5.123V254h-9.464v-39.26h15.45c4.656 0 8.296 1.034 10.921 3.101 2.624 2.068 3.936 4.989 3.936 8.764 0 2.732-.557 4.997-1.671 6.795-1.097 1.797-2.823 3.253-5.178 4.368l8.197 15.828V254h-10.138l-6.93-13.859zm-5.123-7.308h5.986c1.798 0 3.146-.467 4.045-1.402.916-.953 1.375-2.274 1.375-3.964 0-1.689-.459-3.011-1.375-3.963-.917-.971-2.265-1.456-4.045-1.456h-5.986v10.785zm57.352-18.093v25.697c0 2.912-.62 5.438-1.86 7.577-1.24 2.121-3.02 3.739-5.339 4.854-2.319 1.114-5.06 1.671-8.224 1.671-4.782 0-8.547-1.24-11.298-3.721-2.75-2.48-4.152-5.878-4.206-10.192V214.74h9.518v26.075c.108 4.296 2.103 6.444 5.986 6.444 1.959 0 3.443-.539 4.449-1.618 1.007-1.078 1.51-2.831 1.51-5.258V214.74h9.464zm26.183 28.825c0-1.384-.495-2.463-1.484-3.236-.97-.773-2.687-1.573-5.15-2.4-2.462-.826-4.476-1.626-6.04-2.399-5.087-2.499-7.63-5.932-7.63-10.301 0-2.175.629-4.089 1.887-5.743 1.276-1.672 3.074-2.966 5.393-3.883 2.319-.934 4.925-1.402 7.819-1.402 2.823 0 5.348.503 7.577 1.51 2.247 1.007 3.991 2.445 5.231 4.314 1.241 1.852 1.861 3.973 1.861 6.364h-9.438c0-1.6-.494-2.84-1.483-3.721-.97-.881-2.291-1.321-3.963-1.321-1.69 0-3.029.377-4.018 1.132-.971.737-1.456 1.681-1.456 2.831 0 1.007.539 1.924 1.618 2.751 1.078.809 2.975 1.653 5.689 2.534 2.715.863 4.944 1.798 6.687 2.805 4.243 2.444 6.364 5.815 6.364 10.111 0 3.433-1.294 6.13-3.883 8.089-2.588 1.96-6.139 2.939-10.651 2.939-3.181 0-6.067-.566-8.655-1.698-2.571-1.151-4.512-2.715-5.824-4.692-1.295-1.996-1.942-4.287-1.942-6.876h9.492c0 2.103.539 3.658 1.617 4.665 1.097.988 2.868 1.483 5.312 1.483 1.564 0 2.796-.333 3.694-.998.917-.683 1.376-1.636 1.376-2.858zm45.137-21.517h-11.783V254h-9.464v-31.952h-11.568v-7.308h32.815v7.308z"/></svg>